<svg width="392" height="392" xmlns="http://www.w3.org/2000/svg">
    <g fill="none" fill-rule="evenodd">
        <path fill="#FFF" d="M0 0h392v392H0z"/>
        <path fill="#FFFFFE" d="M6 392h380.24V0H6z"/>
        <path d="M70.25 50.214c-.5-.327-1.593-.725-2.9-.725-2.897 0-5.724 1.867-5.724 6.697 0 4.667 2.21 6.976 5.345 6.976 1.138 0 2.043-.209 2.733-.464v-4.646l-1.45-.326c-.24-.047-.335-.118-.335-.256 0-.211.168-.491.265-.7h5.411s.025.14.025.256c0 .373-.215.653-.805.818l-.55.137v4.879c-.64.56-2.396 1.82-5.889 1.82-4.18 0-7.456-2.543-7.456-8.214 0-6.066 4.583-8.446 8.524-8.446 2.52 0 3.778.7 4.56 1.051.07.698.146 2.145.146 2.332 0 .724-.215 1.19-.835 1.19-.19 0-.38-.046-.545-.092l-.52-2.287M77.248 58.347c.026 3.116 1.503 4.574 3.651 4.574 1.6 0 2.5-.63 3.127-1.156.248.2.374.627.374.854 0 .627-1.648 2.061-4.425 2.061-3.074 0-5.375-1.76-5.375-6.132 0-4.373 2.624-6.608 5.475-6.608 2.825 0 4.251 1.733 4.251 4.246a9.06 9.06 0 0 1-.3 2.161h-6.778zm4.378-1.33c.05-.228.126-.656.126-1.082 0-1.381-.503-2.564-1.953-2.564-1.474 0-2.35 1.183-2.525 3.645h4.352zM92.507 54.365h-2.91v9.014l1.621.312c.238.048.336.121.336.314 0 .241-.17.602-.24.675h-5.67s-.026-.145-.026-.218c0-.434.286-.627.74-.794l.81-.29v-9.013h-1.763s-.025-.145-.025-.216c0-.457.286-.698.738-.82l1.05-.289v-.24c0-3.88 2.334-5.76 4.386-5.76 1.19 0 1.666.53 1.666 1.276 0 .604-.356.941-.713 1.134-.215-.24-.837-.698-1.575-.698-1.024 0-1.382.579-1.382 2 0 .746.047 2.288.047 2.288h3.171l-.26 1.325M104 58.782c0 3.956-2.769 5.898-5.561 5.898-2.86 0-5.219-1.829-5.219-5.67 0-3.862 2.747-5.92 5.653-5.92 2.862 0 5.127 1.714 5.127 5.692zm-7.436-7.267c-.689 0-1.238-.503-1.238-1.235 0-.777.55-1.28 1.238-1.28.709 0 1.234.503 1.234 1.28 0 .732-.525 1.235-1.234 1.235zm-.892 7.358c0 3.064 1.234 4.435 2.928 4.435s2.952-1.326 2.952-4.389-1.258-4.48-2.952-4.48-2.928 1.35-2.928 4.434zm5.032-7.358c-.733 0-1.258-.503-1.258-1.235 0-.777.525-1.28 1.258-1.28.689 0 1.214.503 1.214 1.28 0 .732-.525 1.235-1.214 1.235zM110.029 55.106h.074c.51-.808 1.414-2.186 2.997-2.186 1.146 0 1.68.523 1.68 1.258 0 .523-.241.975-.436 1.213a3.84 3.84 0 0 0-1.634-.358c-1.342 0-2.022.523-2.535 1.213v7.151l1.755.308c.243.047.34.12.34.31 0 .237-.194.593-.24.665h-5.898s-.026-.143-.026-.215c0-.428.293-.618.755-.783l.854-.285v-8.791l-1.73-.26s-.025-.143-.025-.238c0-.403.316-.688.9-.735l3.315-.31-.146 2.043M125.793 63.054l1.703.24s.024.095.024.19c0 .431-.305.718-.865.766l-3.08.287v-1.555h-.07c-.513.742-1.493 1.698-3.313 1.698-2.285 0-4.432-1.507-4.432-5.664 0-4.447 3.034-6.455 6.021-6.455.676 0 1.258.12 1.656.214v-4.18l-1.656-.241s-.024-.167-.024-.262c0-.408.302-.695.862-.74l3.174-.312v16.014zm-2.356-8.341c-.349-.335-.98-.718-1.96-.718-1.89 0-3.29 1.387-3.29 4.542 0 3.083 1.307 4.326 2.87 4.326 1.353 0 2.076-.646 2.38-1.004v-7.146zM131.152 58.347c.024 3.116 1.498 4.574 3.648 4.574 1.6 0 2.5-.63 3.124-1.156.25.2.376.627.376.854 0 .627-1.652 2.061-4.426 2.061-3.074 0-5.374-1.76-5.374-6.132 0-4.373 2.626-6.608 5.474-6.608 2.826 0 4.25 1.733 4.25 4.246 0 .653-.124 1.534-.3 2.161h-6.772zm4.374-1.33a5.6 5.6 0 0 0 .122-1.082c0-1.381-.498-2.564-1.948-2.564-1.474 0-2.348 1.183-2.524 3.645h4.35zM143.349 55.106h.072c.513-.808 1.416-2.186 2.996-2.186 1.147 0 1.683.523 1.683 1.258 0 .523-.244.975-.439 1.213a3.83 3.83 0 0 0-1.634-.358c-1.339 0-2.021.523-2.534 1.213v7.151l1.754.308c.246.047.344.12.344.31 0 .237-.195.593-.244.665h-5.898s-.023-.143-.023-.215c0-.428.293-.618.755-.783l.854-.285v-8.791l-1.73-.26s-.025-.143-.025-.238c0-.403.316-.688.9-.735l3.313-.31-.144 2.043M155.581 54.412h-3.261v6.814c0 1.05.331 1.914 1.525 1.914.928 0 1.691-.398 1.882-.56.118.186.213.535.213.769 0 .233-.833 1.331-3.003 1.331-2.168 0-3.026-1.238-3.026-3.034v-7.234h-1.786s-.025-.14-.025-.21c0-.441.286-.7.738-.793l1.169-.28.547-3.149h1.766v3.15h3.525l-.264 1.282M171.853 63.054l1.703.24s.024.095.024.19c0 .431-.305.718-.865.766l-3.08.287v-1.555h-.07c-.51.742-1.493 1.698-3.31 1.698-2.29 0-4.435-1.507-4.435-5.664 0-4.447 3.032-6.455 6.019-6.455.676 0 1.26.12 1.658.214v-4.18l-1.658-.241s-.022-.167-.022-.262c0-.408.304-.695.864-.74l3.172-.312v16.014zm-2.356-8.341c-.351-.335-.982-.718-1.96-.718-1.892 0-3.292 1.387-3.292 4.542 0 3.083 1.307 4.326 2.87 4.326 1.355 0 2.078-.646 2.382-1.004v-7.146zM185.58 63.084l1.696.234s.024.094.024.188c0 .423-.303.704-.861.751l-3.07.282v-1.55h-.044c-.372.493-1.395 1.691-3.44 1.691-2.486 0-3.65-1.48-3.65-4.248v-5.987l-1.65-.257s-.025-.141-.025-.235c0-.398.303-.68.861-.727l3.163-.306v7.394c0 2.135 1.116 2.629 2.139 2.629 1.185 0 1.973-.517 2.509-1.127v-7.371l-1.652-.257s-.022-.141-.022-.235c0-.398.303-.68.861-.727l3.16-.306v10.164M192.349 55.106h.072c.513-.808 1.416-2.186 2.999-2.186 1.144 0 1.68.523 1.68 1.258 0 .523-.241.975-.436 1.213a3.84 3.84 0 0 0-1.634-.358c-1.342 0-2.024.523-2.533 1.213v7.151l1.753.308c.243.047.34.12.34.31 0 .237-.194.593-.245.665h-5.896s-.023-.143-.023-.215c0-.428.293-.618.757-.783l.852-.285v-8.791l-1.732-.26s-.023-.143-.023-.238c0-.403.318-.688.903-.735l3.314-.31-.148 2.043M202.965 53.448c-1.7 0-3.176 1.206-3.176 4.497 0 3.166 1.246 5 3.633 5 1.575 0 2.489-.802 2.895-1.204.227.225.406.627.406.852 0 .63-1.397 2.087-4.188 2.087-3.302 0-5.435-2.06-5.435-6.208 0-4.246 2.87-6.532 6.298-6.532 2.793 0 3.502 1.357 3.502 2.085 0 .68-.329 1.306-1.294 1.507-.38-.878-.965-2.084-2.641-2.084M212.827 54.402h.045c.456-.583 1.55-1.75 3.51-1.75 2.28 0 3.579 1.433 3.579 4.275v6.44l1.322.316c.228.048.317.122.317.317 0 .243-.182.606-.226.68H216.2s-.023-.146-.023-.22c0-.437.273-.655.707-.8l.752-.292v-6.15c0-2.064-1.047-2.696-2.21-2.696-1.414 0-2.165.658-2.6 1.118v7.728l1.277.315c.228.048.32.122.32.317 0 .243-.16.606-.229.68h-5.173s-.022-.146-.022-.22c0-.437.274-.655.706-.8l.796-.292V48.62l-1.617-.246s-.024-.169-.024-.266c0-.414.297-.706.845-.752l3.122-.317v7.362M224.037 55.024c-.823 0-1.457-.602-1.457-1.529 0-.953.634-1.555 1.457-1.555.824 0 1.483.602 1.483 1.555 0 .927-.659 1.53-1.483 1.53zm0 9.656c-.823 0-1.457-.602-1.457-1.529 0-.953.634-1.555 1.457-1.555.824 0 1.483.602 1.483 1.555 0 .927-.659 1.529-1.483 1.529zM66.885 313.55c0 1.006.335 1.307.716 1.307.514 0 .782-.301.85-.428.111.177.269.529.269.754 0 .328-.582 1.307-2.037 1.307-1.03 0-1.68-.503-1.877-1.76h-.047c-.245.479-1.074 1.81-2.93 1.81-1.7 0-2.909-1.307-2.909-3.292 0-2.688 2.617-3.693 5.123-3.693h.584v-1.133c0-2.286-.537-3.19-1.927-3.19a3 3 0 0 0-1.14.25c-.2.48-.381 1.358-.492 2.21 0 0-.335.027-.514.027-.76 0-1.184-.402-1.184-1.18 0-1.559 1.832-2.739 3.914-2.739 2.46 0 3.601 1.506 3.601 4.347v5.403zm-2.776-2.74c-1.81.1-2.84.83-2.84 2.163 0 1.053.536 1.757 1.455 1.757.918 0 1.61-.677 1.903-1.08v-2.865l-.518.024zM80.717 314.943l1.699.235s.024.094.024.188c0 .423-.303.704-.861.751l-3.07.282v-1.55h-.044c-.372.495-1.395 1.691-3.441 1.691-2.49 0-3.65-1.478-3.65-4.249v-5.986l-1.652-.26s-.022-.138-.022-.232c0-.4.301-.682.86-.729l3.162-.304v7.395c0 2.136 1.116 2.627 2.139 2.627 1.184 0 1.977-.516 2.511-1.124v-7.373l-1.65-.26s-.024-.138-.024-.232c0-.4.301-.682.859-.729l3.16-.304v10.163M90.545 306.227h-2.908v9.012l1.621.314c.236.048.334.12.334.312 0 .241-.168.604-.239.675h-5.67s-.025-.145-.025-.216c0-.434.286-.626.738-.796l.813-.29v-9.011h-1.766s-.023-.145-.023-.216c0-.459.286-.7.738-.822l1.05-.287v-.24c0-3.88 2.334-5.762 4.384-5.762 1.191 0 1.668.533 1.668 1.279 0 .603-.356.938-.715 1.131-.213-.24-.835-.698-1.573-.698-1.024 0-1.385.579-1.385 2 0 .748.05 2.29.05 2.29h3.169l-.261 1.325M101.79 305.425h-1.845c.432.59.705 1.296.705 2.144 0 2.499-2.006 3.913-4.49 3.913-.388 0-.73-.047-1.07-.116-.321.188-.638.516-.638 1.06 0 .565.364.823 1.137.823h2.645c2.097 0 3.283.99 3.283 2.687 0 2.358-2.234 4.524-6.086 4.524-2.803 0-4.171-1.012-4.171-2.732 0-1.65 1.253-2.427 2.073-2.687v-.048c-.592-.33-.935-.895-.935-1.65 0-1.367 1.21-2.002 1.641-2.238v-.047c-1.277-.59-2.097-1.791-2.097-3.489 0-2.474 2.006-3.769 4.331-3.769a5.56 5.56 0 0 1 1.779.283h3.988l-.25 1.342zm-6.565 9.946c-.317 0-.591-.023-.845-.048-.59.355-.98.943-.98 1.745 0 1.226.73 2.002 2.396 2.002 2.21 0 3.578-1.06 3.578-2.307 0-.968-.523-1.392-1.687-1.392h-2.462zm-1.003-7.777c0 1.861.911 2.59 2.051 2.59 1.231 0 2.12-.729 2.12-2.59 0-1.672-.889-2.521-2.074-2.521-1.186 0-2.097.705-2.097 2.521zM106.109 305.984h.072c.513-.806 1.416-2.184 2.996-2.184 1.147 0 1.683.523 1.683 1.258 0 .523-.244.976-.439 1.211a3.84 3.84 0 0 0-1.634-.355c-1.339 0-2.021.523-2.532 1.21v7.153l1.752.31c.246.047.344.117.344.308 0 .237-.195.595-.244.665h-5.898s-.023-.143-.023-.213c0-.428.293-.618.755-.785l.854-.285v-8.79l-1.73-.263s-.025-.14-.025-.236c0-.405.316-.69.9-.738l3.315-.307-.146 2.041M122.862 314.943l1.696.235s.022.094.022.188c0 .423-.301.704-.86.751l-3.069.282v-1.55h-.046c-.372.495-1.395 1.691-3.44 1.691-2.486 0-3.65-1.478-3.65-4.249v-5.986l-1.65-.26s-.025-.138-.025-.232c0-.4.303-.682.861-.729l3.163-.304v7.395c0 2.136 1.116 2.627 2.139 2.627 1.185 0 1.973-.516 2.509-1.124v-7.373l-1.652-.26s-.02-.138-.02-.232c0-.4.301-.682.86-.729l3.162-.304v10.163M136.635 314.277l1.344.31c.23.047.321.117.321.308 0 .237-.182.595-.228.665h-5.174s-.024-.143-.024-.213c0-.428.276-.643.708-.785l.751-.285v-6.012c0-2.018-1.094-2.636-2.21-2.636-1.3 0-2.143.64-2.62 1.045v7.603l1.298.31c.228.047.32.117.32.308 0 .237-.183.595-.229.665h-5.174s-.023-.143-.023-.213c0-.428.273-.618.707-.785l.8-.285v-8.79l-1.622-.263s-.02-.14-.02-.236c0-.405.295-.69.842-.738l3.1-.307-.136 1.66h.067c.617-.687 1.642-1.803 3.739-1.803 2.234 0 3.463 1.496 3.463 4.18v6.297M150.293 314.914l1.703.24s.024.095.024.19c0 .43-.305.718-.865.766l-3.078.287v-1.553h-.071c-.514.74-1.494 1.696-3.314 1.696-2.285 0-4.432-1.505-4.432-5.665 0-4.447 3.034-6.453 6.021-6.453.676 0 1.258.118 1.656.214v-4.183l-1.656-.24s-.024-.165-.024-.261c0-.408.302-.695.862-.742l3.174-.31v16.014zm-2.356-8.34c-.349-.337-.98-.72-1.96-.72-1.89 0-3.29 1.389-3.29 4.545 0 3.08 1.307 4.324 2.87 4.324 1.353 0 2.076-.644 2.38-1.002v-7.147zM160.55 310.206c.024 3.117 1.499 4.575 3.652 4.575 1.6 0 2.5-.628 3.124-1.157.25.201.374.63.374.855 0 .63-1.65 2.061-4.425 2.061-3.074 0-5.375-1.76-5.375-6.133 0-4.371 2.627-6.607 5.475-6.607 2.827 0 4.251 1.733 4.251 4.247 0 .65-.126 1.534-.3 2.159h-6.775zm4.376-1.329c.05-.227.123-.656.123-1.084 0-1.381-.497-2.561-1.948-2.561-1.474 0-2.35 1.18-2.527 3.645h4.352zM172.816 314.303l1.41.304c.238.047.334.115.334.301 0 .233-.191.583-.24.652h-5.474s-.025-.14-.025-.208c0-.42.287-.605.743-.77l.838-.279v-8.608l-1.7-.257s-.022-.137-.022-.23c0-.397.312-.676.884-.723l3.252-.301v10.12zm-1.221-12.424c-.884 0-1.555-.581-1.555-1.49 0-.882.671-1.489 1.555-1.489.86 0 1.58.607 1.58 1.49 0 .908-.72 1.489-1.58 1.489zM187.595 314.277l1.344.31c.23.047.321.117.321.308 0 .237-.182.595-.228.665h-5.174s-.024-.143-.024-.213c0-.428.276-.643.708-.785l.751-.285v-6.012c0-2.018-1.094-2.636-2.21-2.636-1.298 0-2.143.64-2.62 1.045v7.603l1.298.31c.228.047.32.117.32.308 0 .237-.183.595-.229.665h-5.174s-.023-.143-.023-.213c0-.428.273-.618.707-.785l.8-.285v-8.79l-1.622-.263s-.02-.14-.02-.236c0-.405.295-.69.842-.738l3.1-.307-.136 1.66h.067c.617-.687 1.642-1.803 3.739-1.803 2.234 0 3.463 1.496 3.463 4.18v6.297M191.908 310.206c.026 3.117 1.503 4.575 3.651 4.575 1.6 0 2.5-.628 3.127-1.157.248.201.374.63.374.855 0 .63-1.648 2.061-4.425 2.061-3.074 0-5.375-1.76-5.375-6.133 0-4.371 2.627-6.607 5.475-6.607 2.825 0 4.251 1.733 4.251 4.247 0 .65-.126 1.534-.3 2.159h-6.778zm4.378-1.329c.05-.227.126-.656.126-1.084 0-1.381-.503-2.561-1.95-2.561-1.477 0-2.354 1.18-2.528 3.645h4.352zM205.99 305.66a2.407 2.407 0 0 0-1.451-.503c-.725 0-1.473.35-1.473 1.408 0 1.106 1.033 1.757 2.089 2.46 1.32.906 2.725 1.885 2.725 3.896 0 2.06-1.493 3.619-3.913 3.619-1.231 0-2.331-.426-2.792-.754-.09-.627-.155-1.28-.155-1.934 0-1.006.24-1.408.903-1.408.109 0 .285.026.285.026l.46 2.136c.223.175.86.502 1.498.502 1.077 0 1.76-.478 1.76-1.532 0-1.082-1.056-1.685-2.047-2.389-1.34-.981-2.683-1.96-2.683-4.12 0-1.962 1.496-3.267 3.607-3.267 1.276 0 2.178.5 2.572.929.044.352.088.878.088 1.381 0 .881-.153 1.46-.945 1.46-.11 0-.263-.026-.263-.026l-.264-1.884M224.566 307.921v.046c2.347.387 3.894 1.714 3.894 3.913 0 2.705-2.224 4.66-6.576 4.66h-6.141s-.023-.145-.023-.265c0-.386.193-.724.822-.869l1.015-.241v-13.958l-1.473-.338c-.244-.048-.341-.12-.341-.267 0-.216.17-.506.27-.722h5.678c4.303 0 6.357 1.52 6.357 4.2 0 2.296-1.4 3.381-3.482 3.841zm-3.092-6.569h-1.308v6.086h1.283c2.756 0 3.916-1.352 3.916-3.068 0-1.98-1.231-3.018-3.89-3.018zm.29 7.485h-1.598v6.23h1.453c2.828 0 4.085-1.329 4.085-3.21 0-1.79-1.331-3.02-3.94-3.02zM232.088 310.206c.026 3.117 1.503 4.575 3.651 4.575 1.6 0 2.5-.628 3.127-1.157.248.201.374.63.374.855 0 .63-1.648 2.061-4.425 2.061-3.074 0-5.375-1.76-5.375-6.133 0-4.371 2.627-6.607 5.475-6.607 2.825 0 4.251 1.733 4.251 4.247 0 .65-.126 1.534-.3 2.159h-6.778zm4.378-1.329c.05-.227.126-.656.126-1.084 0-1.381-.503-2.561-1.953-2.561-1.474 0-2.35 1.18-2.525 3.645h4.352zM247.15 305.66a2.412 2.412 0 0 0-1.451-.503c-.727 0-1.475.35-1.475 1.408 0 1.106 1.035 1.757 2.09 2.46 1.32.906 2.726 1.885 2.726 3.896 0 2.06-1.496 3.619-3.913 3.619-1.231 0-2.331-.426-2.794-.754a14.326 14.326 0 0 1-.153-1.934c0-1.006.243-1.408.903-1.408.109 0 .285.026.285.026l.463 2.136c.217.175.856.502 1.493.502 1.079 0 1.76-.478 1.76-1.532 0-1.082-1.056-1.685-2.045-2.389-1.34-.981-2.683-1.96-2.683-4.12 0-1.962 1.496-3.267 3.607-3.267 1.276 0 2.176.5 2.572.929.046.352.088.878.088 1.381 0 .881-.153 1.46-.945 1.46-.11 0-.263-.026-.263-.026l-.264-1.884M255.885 305.306c-1.7 0-3.173 1.206-3.173 4.498 0 3.17 1.243 5.003 3.633 5.003 1.572 0 2.486-.804 2.892-1.207.23.225.406.628.406.855 0 .627-1.395 2.085-4.188 2.085-3.302 0-5.435-2.061-5.435-6.207 0-4.247 2.87-6.533 6.298-6.533 2.793 0 3.502 1.357 3.502 2.085 0 .68-.329 1.307-1.294 1.506-.38-.879-.963-2.085-2.641-2.085M264.767 306.26h.043c.456-.583 1.55-1.747 3.51-1.747 2.28 0 3.579 1.433 3.579 4.275v6.44l1.322.317c.23.048.319.12.319.314 0 .244-.182.61-.228.681h-5.174s-.021-.146-.021-.218c0-.437.273-.657.705-.803l.754-.291v-6.148c0-2.065-1.05-2.697-2.213-2.697-1.411 0-2.164.655-2.596 1.118v7.727l1.276.317c.226.048.317.12.317.314 0 .244-.158.61-.226.681h-5.176s-.021-.146-.021-.218c0-.437.273-.657.705-.803l.797-.291v-14.75l-1.617-.242s-.022-.17-.022-.267c0-.414.295-.706.842-.754l3.125-.315v7.36M277.694 315.228l1.39.317c.24.048.336.12.336.314 0 .244-.167.61-.238.681h-5.475s-.02-.146-.02-.218c0-.437.287-.657.742-.803l.84-.291v-14.75l-1.704-.242s-.025-.17-.025-.267c0-.414.313-.706.89-.754l3.264-.315v16.328M291.42 314.943l1.696.235s.024.094.024.188c0 .423-.303.704-.861.751l-3.07.282v-1.55h-.044c-.372.495-1.395 1.691-3.441 1.691-2.487 0-3.652-1.478-3.652-4.249v-5.986l-1.65-.26s-.022-.138-.022-.232c0-.4.301-.682.86-.729l3.162-.304v7.395c0 2.136 1.116 2.627 2.139 2.627 1.184 0 1.973-.516 2.511-1.124v-7.373l-1.654-.26s-.02-.138-.02-.232c0-.4.301-.682.859-.729l3.162-.304v10.163M300.07 305.66a2.411 2.411 0 0 0-1.452-.503c-.727 0-1.472.35-1.472 1.408 0 1.106 1.032 1.757 2.088 2.46 1.319.906 2.726 1.885 2.726 3.896 0 2.06-1.495 3.619-3.912 3.619-1.23 0-2.332-.426-2.793-.754a14.33 14.33 0 0 1-.155-1.934c0-1.006.245-1.408.903-1.408.11 0 .286.026.286.026l.461 2.136c.22.175.859.502 1.493.502 1.079 0 1.76-.478 1.76-1.532 0-1.082-1.056-1.685-2.043-2.389-1.342-.981-2.684-1.96-2.684-4.12 0-1.962 1.495-3.267 3.606-3.267 1.275 0 2.175.5 2.573.929.044.352.088.878.088 1.381 0 .881-.155 1.46-.946 1.46-.11 0-.264-.026-.264-.026l-.264-1.884M309.87 305.66a2.411 2.411 0 0 0-1.452-.503c-.727 0-1.472.35-1.472 1.408 0 1.106 1.032 1.757 2.088 2.46 1.319.906 2.726 1.885 2.726 3.896 0 2.06-1.495 3.619-3.914 3.619-1.231 0-2.33-.426-2.793-.754a14.33 14.33 0 0 1-.153-1.934c0-1.006.243-1.408.903-1.408.108 0 .284.026.284.026l.463 2.136c.22.175.857.502 1.493.502 1.079 0 1.76-.478 1.76-1.532 0-1.082-1.056-1.685-2.045-2.389-1.34-.981-2.682-1.96-2.682-4.12 0-1.962 1.495-3.267 3.606-3.267 1.275 0 2.175.5 2.571.929.046.352.088.878.088 1.381 0 .881-.153 1.46-.944 1.46-.111 0-.264-.026-.264-.026l-.264-1.884M316.368 310.206c.026 3.117 1.503 4.575 3.651 4.575 1.6 0 2.5-.628 3.127-1.157.248.201.374.63.374.855 0 .63-1.65 2.061-4.427 2.061-3.075 0-5.373-1.76-5.373-6.133 0-4.371 2.624-6.607 5.473-6.607 2.827 0 4.253 1.733 4.253 4.247 0 .65-.126 1.534-.3 2.159h-6.778zm4.378-1.329c.047-.227.123-.656.123-1.084 0-1.381-.5-2.561-1.95-2.561-1.474 0-2.35 1.18-2.525 3.645h4.352zM330.45 305.66a2.42 2.42 0 0 0-1.453-.503c-.725 0-1.473.35-1.473 1.408 0 1.106 1.033 1.757 2.089 2.46 1.32.906 2.727 1.885 2.727 3.896 0 2.06-1.496 3.619-3.913 3.619-1.231 0-2.331-.426-2.794-.754a14.326 14.326 0 0 1-.153-1.934c0-1.006.243-1.408.9-1.408.112 0 .288.026.288.026l.463 2.136c.217.175.856.502 1.493.502 1.077 0 1.757-.478 1.757-1.532 0-1.082-1.055-1.685-2.042-2.389-1.342-.981-2.683-1.96-2.683-4.12 0-1.962 1.493-3.267 3.605-3.267 1.278 0 2.176.5 2.574.929.044.352.088.878.088 1.381 0 .881-.155 1.46-.945 1.46-.11 0-.263-.026-.263-.026l-.264-1.884M68.955 341.374l1.703.24s.022.093.022.19c0 .43-.302.718-.862.766l-3.081.284v-1.55h-.069c-.513.74-1.493 1.696-3.312 1.696-2.289 0-4.436-1.505-4.436-5.667 0-4.445 3.034-6.454 6.019-6.454.678 0 1.262.119 1.658.217v-4.185l-1.658-.237s-.02-.166-.02-.264c0-.406.302-.693.862-.743l3.174-.307v16.014zm-2.358-8.343c-.351-.334-.98-.717-1.958-.717-1.892 0-3.292 1.387-3.292 4.543 0 3.083 1.307 4.326 2.87 4.326 1.355 0 2.078-.644 2.38-1.004v-7.148zM74.308 337.647c.026 3.116 1.503 4.571 3.654 4.571 1.598 0 2.498-.624 3.124-1.153.25.2.374.63.374.854 0 .627-1.648 2.061-4.425 2.061-3.074 0-5.375-1.762-5.375-6.132 0-4.37 2.627-6.608 5.475-6.608 2.825 0 4.251 1.733 4.251 4.248 0 .651-.126 1.532-.3 2.16h-6.778zm4.378-1.33c.05-.226.126-.654.126-1.082 0-1.381-.503-2.561-1.95-2.561-1.477 0-2.354 1.18-2.528 3.642h4.352zM88.39 333.1a2.407 2.407 0 0 0-1.451-.503c-.725 0-1.473.352-1.473 1.407 0 1.106 1.033 1.76 2.089 2.463 1.32.905 2.725 1.884 2.725 3.894 0 2.059-1.493 3.619-3.913 3.619-1.231 0-2.331-.428-2.792-.756-.09-.625-.155-1.28-.155-1.932 0-1.005.24-1.407.903-1.407.11 0 .285.026.285.026l.46 2.133c.223.174.86.502 1.498.502 1.077 0 1.76-.476 1.76-1.531 0-1.082-1.056-1.685-2.047-2.389-1.34-.979-2.683-1.958-2.683-4.119 0-1.96 1.496-3.267 3.607-3.267 1.276 0 2.178.503 2.572.929.044.354.088.88.088 1.383 0 .88-.153 1.458-.945 1.458-.11 0-.263-.027-.263-.027l-.264-1.883M102.436 343h-5.274s-.022-.145-.022-.264c0-.39.187-.727.793-.87l.98-.244V327.67l-1.422-.34c-.235-.046-.329-.117-.329-.265 0-.218.165-.508.26-.724h5.014c5.881 0 9.404 2.27 9.404 8.089 0 5.866-3.5 8.571-9.404 8.571zm-.07-15.188h-.934v13.714h.933c4.319 0 6.792-2.341 6.792-7.026 0-4.512-2.498-6.688-6.792-6.688zM116.45 337.647c.024 3.116 1.502 4.571 3.65 4.571 1.6 0 2.5-.624 3.124-1.153.25.2.376.63.376.854 0 .627-1.65 2.061-4.426 2.061-3.074 0-5.374-1.762-5.374-6.132 0-4.37 2.626-6.608 5.474-6.608 2.826 0 4.25 1.733 4.25 4.248a8.94 8.94 0 0 1-.3 2.16h-6.774zm4.376-1.33c.048-.226.124-.654.124-1.082 0-1.381-.502-2.561-1.95-2.561-1.474 0-2.35 1.18-2.526 3.642h4.352zM135.602 341.404l1.694.234s.024.092.024.188c0 .423-.301.704-.86.751l-3.069.28v-1.547h-.046c-.372.494-1.395 1.69-3.44 1.69-2.486 0-3.65-1.478-3.65-4.25v-5.983l-1.65-.26s-.025-.14-.025-.234c0-.398.303-.682.861-.727l3.163-.306v7.396c0 2.135 1.116 2.627 2.139 2.627 1.185 0 1.973-.517 2.509-1.127v-7.369l-1.652-.26s-.022-.14-.022-.234c0-.398.303-.682.861-.727l3.163-.306v10.164M145.784 332.734h-3.267v6.812c0 1.051.334 1.914 1.526 1.914.928 0 1.69-.396 1.881-.56.12.186.216.538.216.769 0 .235-.835 1.331-3.003 1.331s-3.026-1.238-3.026-3.032v-7.234h-1.786s-.025-.142-.025-.211c0-.442.286-.7.738-.794l1.169-.28.547-3.149h1.763v3.15h3.528l-.261 1.284M152.09 333.1a2.407 2.407 0 0 0-1.451-.503c-.725 0-1.475.352-1.475 1.407 0 1.106 1.035 1.76 2.09 2.463 1.32.905 2.726 1.884 2.726 3.894 0 2.059-1.496 3.619-3.913 3.619-1.231 0-2.331-.428-2.792-.756-.09-.625-.155-1.28-.155-1.932 0-1.005.24-1.407.903-1.407.109 0 .285.026.285.026l.46 2.133c.22.174.86.502 1.498.502 1.077 0 1.76-.476 1.76-1.531 0-1.082-1.056-1.685-2.047-2.389-1.342-.979-2.683-1.958-2.683-4.119 0-1.96 1.496-3.267 3.607-3.267 1.276 0 2.178.503 2.572.929.044.354.088.88.088 1.383 0 .88-.153 1.458-.945 1.458-.11 0-.263-.027-.263-.027l-.264-1.883M161.804 332.748c-1.7 0-3.17 1.206-3.17 4.497 0 3.166 1.24 5 3.629 5 1.572 0 2.486-.804 2.892-1.206.23.227.406.629.406.856 0 .627-1.395 2.085-4.19 2.085-3.298 0-5.431-2.06-5.431-6.206 0-4.246 2.87-6.534 6.296-6.534 2.79 0 3.504 1.357 3.504 2.087 0 .677-.331 1.304-1.296 1.505-.38-.878-.962-2.084-2.64-2.084M170.687 332.72h.043c.456-.583 1.55-1.75 3.51-1.75 2.28 0 3.579 1.436 3.579 4.278v6.44l1.322.314c.23.051.319.123.319.317 0 .241-.182.61-.228.681h-5.174s-.021-.146-.021-.22c0-.437.273-.655.705-.803l.754-.29v-6.147c0-2.067-1.05-2.699-2.213-2.699-1.411 0-2.164.657-2.596 1.12v7.727l1.276.314c.226.051.317.123.317.317 0 .241-.158.61-.226.681h-5.176s-.021-.146-.021-.22c0-.437.273-.655.705-.803l.797-.29v-14.75l-1.617-.241s-.022-.17-.022-.269c0-.412.295-.704.842-.755l3.125-.312v7.36M183.09 337.647c.024 3.116 1.499 4.571 3.65 4.571 1.6 0 2.5-.624 3.126-1.153.248.2.374.63.374.854 0 .627-1.65 2.061-4.425 2.061-3.074 0-5.375-1.762-5.375-6.132 0-4.37 2.624-6.608 5.475-6.608 2.825 0 4.251 1.733 4.251 4.248 0 .651-.126 1.532-.3 2.16h-6.775zm4.376-1.33a5.52 5.52 0 0 0 .123-1.082c0-1.381-.497-2.561-1.95-2.561-1.474 0-2.348 1.18-2.525 3.642h4.352zM203.275 341.717l1.346.308c.228.05.319.12.319.31 0 .235-.182.595-.23.665h-5.173s-.022-.143-.022-.215c0-.428.272-.64.708-.785l.751-.283v-6.01c0-2.02-1.094-2.639-2.21-2.639-1.3 0-2.144.643-2.622 1.048v7.601l1.3.308c.228.05.32.12.32.31 0 .235-.183.595-.23.665h-5.171s-.024-.143-.024-.215c0-.428.273-.615.705-.785l.8-.283v-8.789l-1.618-.262s-.024-.143-.024-.238c0-.403.295-.69.842-.735l3.1-.31-.137 1.663h.07c.614-.688 1.64-1.806 3.736-1.806 2.235 0 3.464 1.498 3.464 4.182v6.295M219.669 334.38v.049c2.344.386 3.891 1.713 3.891 3.91 0 2.704-2.224 4.661-6.576 4.661h-6.139s-.025-.145-.025-.264c0-.39.193-.727.822-.87l1.018-.244V327.67l-1.476-.34c-.244-.046-.339-.117-.339-.265 0-.218.168-.508.267-.724h5.68c4.302 0 6.356 1.522 6.356 4.202 0 2.293-1.4 3.38-3.48 3.838zm-3.095-6.568h-1.308v6.085h1.283c2.756 0 3.916-1.352 3.916-3.065 0-1.983-1.231-3.02-3.89-3.02zm.29 7.486h-1.598v6.228h1.453c2.828 0 4.085-1.327 4.085-3.21 0-1.788-1.329-3.018-3.94-3.018zM235.56 341.404l1.696.234s.024.092.024.188c0 .423-.303.704-.861.751l-3.068.28v-1.547h-.046c-.372.494-1.395 1.69-3.441 1.69-2.49 0-3.65-1.478-3.65-4.25v-5.983l-1.65-.26s-.024-.14-.024-.234c0-.398.303-.682.861-.727l3.16-.306v7.396c0 2.135 1.117 2.627 2.14 2.627 1.184 0 1.977-.517 2.511-1.127v-7.369l-1.65-.26s-.024-.14-.024-.234c0-.398.301-.682.859-.727l3.162-.306v10.164M250.315 341.717l1.344.308c.23.05.321.12.321.31 0 .235-.182.595-.228.665h-5.175s-.022-.143-.022-.215c0-.428.274-.64.708-.785l.751-.283v-6.01c0-2.02-1.096-2.639-2.21-2.639-1.3 0-2.142.643-2.62 1.048v7.601l1.296.308c.23.05.321.12.321.31 0 .235-.182.595-.23.665h-5.17s-.024-.143-.024-.215c0-.428.273-.615.707-.785l.797-.283v-8.789l-1.62-.262s-.021-.143-.021-.238c0-.403.297-.69.844-.735l3.1-.31-.139 1.663h.07c.616-.688 1.639-1.806 3.736-1.806 2.235 0 3.464 1.498 3.464 4.182v6.295M262.993 341.374l1.703.24s.024.093.024.19c0 .43-.305.718-.865.766l-3.08.284v-1.55h-.07c-.51.74-1.493 1.696-3.31 1.696-2.29 0-4.435-1.505-4.435-5.667 0-4.445 3.032-6.454 6.019-6.454.676 0 1.26.119 1.658.217v-4.185l-1.658-.237s-.022-.166-.022-.264c0-.406.304-.693.864-.743l3.172-.307v16.014zm-2.356-8.343c-.351-.334-.982-.717-1.96-.717-1.892 0-3.292 1.387-3.292 4.543 0 3.083 1.307 4.326 2.87 4.326 1.355 0 2.078-.644 2.382-1.004v-7.148zM268.352 337.647c.022 3.116 1.496 4.571 3.648 4.571 1.6 0 2.5-.624 3.124-1.153.25.2.376.63.376.854 0 .627-1.652 2.061-4.426 2.061-3.074 0-5.374-1.762-5.374-6.132 0-4.37 2.626-6.608 5.474-6.608 2.826 0 4.25 1.733 4.25 4.248a8.94 8.94 0 0 1-.3 2.16h-6.772zm4.374-1.33c.048-.226.122-.654.122-1.082 0-1.381-.498-2.561-1.948-2.561-1.474 0-2.348 1.18-2.526 3.642h4.352zM282.43 333.1a2.406 2.406 0 0 0-1.452-.503c-.725 0-1.472.352-1.472 1.407 0 1.106 1.032 1.76 2.088 2.463 1.319.905 2.726 1.884 2.726 3.894 0 2.059-1.495 3.619-3.912 3.619-1.23 0-2.332-.428-2.79-.756a13.64 13.64 0 0 1-.158-1.932c0-1.005.243-1.407.903-1.407.11 0 .286.026.286.026l.459 2.133c.222.174.86.502 1.497.502 1.077 0 1.76-.476 1.76-1.531 0-1.082-1.056-1.685-2.045-2.389-1.342-.979-2.684-1.958-2.684-4.119 0-1.96 1.495-3.267 3.606-3.267 1.275 0 2.178.503 2.573.929.042.354.088.88.088 1.383 0 .88-.155 1.458-.946 1.458-.11 0-.264-.027-.264-.027l-.264-1.883M292.781 332.734h-3.264v6.812c0 1.051.334 1.914 1.526 1.914.928 0 1.69-.396 1.881-.56.12.186.216.538.216.769 0 .235-.833 1.331-3.003 1.331-2.168 0-3.026-1.238-3.026-3.032v-7.234h-1.786s-.025-.142-.025-.211c0-.442.286-.7.738-.794l1.169-.28.547-3.149h1.763v3.15h3.528l-.264 1.284M303.065 340.99c0 1.006.337 1.307.716 1.307.516 0 .784-.301.85-.428.113.175.269.529.269.752 0 .327-.582 1.309-2.035 1.309-1.031 0-1.68-.505-1.88-1.76h-.046c-.245.477-1.074 1.81-2.93 1.81-1.699 0-2.909-1.307-2.909-3.29 0-2.691 2.619-3.696 5.123-3.696h.584v-1.13c0-2.288-.537-3.19-1.925-3.19a2.98 2.98 0 0 0-1.14.25c-.202.477-.381 1.358-.494 2.21 0 0-.335.026-.514.026-.76 0-1.184-.402-1.184-1.182 0-1.556 1.832-2.738 3.914-2.738 2.46 0 3.601 1.508 3.601 4.346v5.405zm-2.774-2.74c-1.811.1-2.84.83-2.84 2.161 0 1.056.536 1.76 1.453 1.76.918 0 1.61-.678 1.903-1.08v-2.867l-.516.026zM316.406 332.865h-1.845a3.54 3.54 0 0 1 .708 2.146c0 2.496-2.006 3.91-4.49 3.91-.388 0-.729-.045-1.072-.114-.32.188-.638.516-.638 1.057 0 .566.365.826 1.14.826h2.643c2.097 0 3.28.99 3.28 2.687 0 2.357-2.231 4.523-6.082 4.523-2.802 0-4.17-1.012-4.17-2.732 0-1.65 1.253-2.426 2.073-2.689v-.045c-.593-.332-.936-.898-.936-1.652 0-1.365 1.21-2 1.642-2.238v-.045c-1.277-.59-2.097-1.791-2.097-3.488 0-2.474 2.005-3.771 4.33-3.771.615 0 1.21.094 1.778.283h3.99l-.254 1.342zm-6.562 9.946c-.32 0-.593-.024-.842-.047-.593.353-.982.943-.982 1.744 0 1.226.73 2.003 2.395 2.003 2.21 0 3.577-1.06 3.577-2.31 0-.968-.525-1.39-1.687-1.39h-2.461zm-1.003-7.775c0 1.86.912 2.59 2.051 2.59 1.231 0 2.121-.73 2.121-2.59 0-1.675-.89-2.523-2.075-2.523s-2.097.707-2.097 2.523zM320.288 337.647c.026 3.116 1.503 4.571 3.654 4.571 1.6 0 2.498-.624 3.124-1.153.25.2.374.63.374.854 0 .627-1.648 2.061-4.425 2.061-3.074 0-5.375-1.762-5.375-6.132 0-4.37 2.627-6.608 5.475-6.608 2.827 0 4.251 1.733 4.251 4.248 0 .651-.124 1.532-.3 2.16h-6.778zm4.378-1.33c.05-.226.126-.654.126-1.082 0-1.381-.503-2.561-1.95-2.561-1.475 0-2.354 1.18-2.528 3.642h4.352zM334.37 333.1a2.406 2.406 0 0 0-1.452-.503c-.725 0-1.472.352-1.472 1.407 0 1.106 1.032 1.76 2.088 2.463 1.319.905 2.726 1.884 2.726 3.894 0 2.059-1.495 3.619-3.912 3.619-1.23 0-2.332-.428-2.793-.756a13.64 13.64 0 0 1-.155-1.932c0-1.005.24-1.407.903-1.407.11 0 .286.026.286.026l.459 2.133c.222.174.859.502 1.497.502 1.077 0 1.76-.476 1.76-1.531 0-1.082-1.056-1.685-2.047-2.389-1.34-.979-2.682-1.958-2.682-4.119 0-1.96 1.495-3.267 3.606-3.267 1.275 0 2.178.503 2.573.929.042.354.086.88.086 1.383 0 .88-.153 1.458-.944 1.458-.111 0-.264-.027-.264-.027l-.264-1.883" fill="#1A1919"/>
        <path fill="#F1CC1F" d="M128.08 204.82h3.36v45.08h-7.84v-45.08h4.48"/>
        <path fill="#D8232A" d="M128.08 159.74h3.36v45.08h-7.84v-45.08h4.48"/>
        <path fill="#1A1919" d="M123.6 160.72h7.84v-45.08h-7.84zM156.859 120.07c0 .64-.08 1.203-.24 1.685-.162.484-.38.898-.656 1.247a3.528 3.528 0 0 1-.962.844 4.727 4.727 0 0 1-1.136.481v.054c.48.088.932.259 1.35.509.418.25.784.562 1.096.936.312.376.561.817.748 1.325.189.509.28 1.067.28 1.674 0 .732-.123 1.402-.374 2.01a4.115 4.115 0 0 1-1.162 1.58c-.525.445-1.19.794-1.992 1.044s-1.754.373-2.86.373h-3.769v-18.477h3.556c1.087 0 2.017.113 2.792.336.775.222 1.413.54 1.912.951.498.41.86.905 1.082 1.486.223.58.335 1.226.335 1.942zm-2.352.078c0-.855-.303-1.561-.91-2.115-.606-.553-1.558-.83-2.859-.83h-1.23v6.375h1.203c1.247 0 2.192-.304 2.833-.912.642-.607.963-1.447.963-2.518zm.346 8.518c0-1.002-.323-1.792-.975-2.372-.649-.579-1.581-.869-2.794-.869h-1.577v6.48h1.444c1.373 0 2.366-.271 2.981-.816.616-.544.921-1.352.921-2.423zm14.329 5.166h-1.98v-1.445h-.053c-.052.106-.169.264-.346.469-.18.204-.407.4-.683.59a4.675 4.675 0 0 1-1.002.494 3.834 3.834 0 0 1-1.31.214c-.57 0-1.082-.086-1.536-.254a2.775 2.775 0 0 1-1.163-.817c-.321-.374-.566-.862-.735-1.458-.17-.599-.254-1.335-.254-2.21v-8.436h2.166v8.274c0 1.071.173 1.836.52 2.29.347.455.886.682 1.618.682.622 0 1.148-.155 1.577-.468a5.64 5.64 0 0 0 1.015-.922v-9.856h2.166v12.853zm10.317 0v-8.274c0-1.09-.182-1.87-.548-2.343-.364-.472-.921-.708-1.67-.708-.642 0-1.176.16-1.605.481-.427.322-.766.633-1.016.936v9.908h-2.165V120.98h1.979v1.447h.054c.054-.108.168-.264.348-.468.177-.207.409-.403.694-.59a4.908 4.908 0 0 1 1.015-.495 3.865 3.865 0 0 1 1.337-.214c.57 0 1.087.083 1.55.254.465.17.855.442 1.177.817.32.374.57.86.748 1.458.177.599.267 1.335.267 2.21v8.434h-2.165zm4.811-6.238c0-1.302.17-2.392.508-3.267.339-.875.775-1.58 1.31-2.115a4.56 4.56 0 0 1 1.819-1.139 6.453 6.453 0 0 1 2.03-.335c.409 0 .766.031 1.07.094.303.063.552.138.747.228v-6.16l2.166-.24v19.172h-1.98v-1.366h-.05a3.264 3.264 0 0 1-.295.444c-.144.186-.34.373-.589.562-.249.187-.561.347-.936.482-.373.132-.811.2-1.31.2-.604 0-1.18-.12-1.723-.362-.543-.241-1.02-.624-1.43-1.15-.41-.527-.735-1.206-.975-2.037-.24-.83-.362-1.834-.362-3.01zm5.079 4.631a2.767 2.767 0 0 0 1.604-.468c.195-.132.361-.272.494-.414.134-.144.238-.267.307-.375v-7.926a3.185 3.185 0 0 0-.68-.322c-.259-.09-.584-.135-.977-.135-.499 0-.966.086-1.402.255a2.753 2.753 0 0 0-1.137.844c-.32.393-.575.902-.761 1.527-.189.624-.28 1.391-.28 2.302 0 .894.073 1.639.226 2.237.15.597.362 1.08.629 1.445.267.367.568.63.907.79.34.162.697.24 1.07.24zm16.119-6.908c0 .554-.018 1.03-.054 1.434-.036.4-.072.753-.106 1.057h-6.55c.072 1.517.395 2.633.975 3.346.58.716 1.413 1.071 2.5 1.071.375 0 .712-.042 1.015-.132a3.784 3.784 0 0 0 1.35-.698 5.11 5.11 0 0 0 .335-.292l.802 1.525c-.09.09-.223.219-.402.387-.178.171-.418.34-.721.511a5.244 5.244 0 0 1-1.123.441c-.445.124-.97.187-1.577.187-.802 0-1.528-.133-2.179-.4a4.12 4.12 0 0 1-1.655-1.247c-.456-.563-.807-1.276-1.058-2.142-.25-.865-.373-1.906-.373-3.12 0-1.142.128-2.128.386-2.958.26-.83.611-1.513 1.056-2.048a4.233 4.233 0 0 1 1.552-1.193 4.657 4.657 0 0 1 1.898-.387c1.229 0 2.19.387 2.886 1.164.694.776 1.043 1.942 1.043 3.494zm-4.064-2.891c-.766 0-1.381.321-1.844.963-.463.643-.73 1.57-.802 2.786h4.679c.016-.09.03-.219.038-.39.01-.169.014-.35.014-.549 0-.89-.178-1.584-.535-2.075-.355-.49-.871-.735-1.55-.735zm12.482 1.152c-.141-.162-.4-.38-.775-.657-.372-.277-.864-.414-1.469-.414-.57 0-1.006.132-1.31.4-.302.268-.455.59-.455.966 0 .481.14.877.415 1.19.277.313.699.648 1.27 1.004l.801.483c.874.518 1.56 1.076 2.058 1.672.5.599.75 1.37.75 2.318 0 1.017-.352 1.874-1.055 2.57-.706.695-1.717 1.044-3.035 1.044-.517 0-.973-.054-1.364-.16a5.899 5.899 0 0 1-1.028-.376c-.295-.141-.54-.299-.735-.468a4.897 4.897 0 0 1-.483-.468l1.042-1.714c.108.108.239.231.389.375.153.142.335.282.548.414.213.135.454.246.721.336.267.09.58.132.937.132.64 0 1.132-.141 1.469-.427.339-.286.507-.635.507-1.044 0-.304-.038-.567-.119-.79a1.8 1.8 0 0 0-.361-.603 3.332 3.332 0 0 0-.589-.509c-.231-.16-.498-.34-.802-.535l-.802-.509c-.801-.517-1.428-1.062-1.882-1.633-.456-.572-.683-1.303-.683-2.197 0-.481.095-.922.281-1.325.187-.4.45-.75.789-1.044.339-.295.734-.527 1.19-.696a4.092 4.092 0 0 1 1.456-.254c.498 0 .927.047 1.282.146a3.8 3.8 0 0 1 .923.376c.259.151.472.302.64.455.171.15.308.281.416.387l-.937 1.555zm10.56 10.254v-8.274c0-1.053-.153-1.811-.454-2.275-.303-.466-.793-.698-1.471-.698a3.05 3.05 0 0 0-.948.135 3.206 3.206 0 0 0-1.298.776 8.64 8.64 0 0 0-.4.428v9.908h-2.166V120.98h1.98v1.447h.051c.09-.144.225-.318.402-.522.178-.205.4-.403.667-.59a3.8 3.8 0 0 1 .937-.468 3.593 3.593 0 0 1 1.202-.187c1.462 0 2.495.57 3.102 1.713a4.17 4.17 0 0 1 2.22-1.553c.354-.108.747-.16 1.174-.16 2.603 0 3.904 1.517 3.904 4.552v8.621h-2.166v-8.274c0-1.053-.188-1.811-.561-2.275-.375-.466-.928-.698-1.658-.698-.606 0-1.11.149-1.51.444-.402.294-.718.574-.95.844.036.195.063.405.081.627.018.223.027.46.027.711v8.621h-2.165zm12.134 0h2.165V120.98h-2.165v12.853zm1.096-15.959c-.445 0-.802-.144-1.07-.427-.266-.286-.399-.662-.399-1.125 0-.448.133-.813.4-1.098.267-.286.624-.43 1.07-.43.428 0 .774.144 1.041.43.268.285.402.65.402 1.098 0 .463-.134.839-.402 1.125-.267.283-.613.427-1.042.427zm11.388 15.96v-8.275c0-1.09-.184-1.87-.548-2.343-.366-.472-.923-.708-1.67-.708-.643 0-1.178.16-1.605.481-.426.322-.766.633-1.015.936v9.908h-2.165V120.98h1.979v1.447h.051c.054-.108.171-.264.348-.468.178-.207.412-.403.695-.59a4.874 4.874 0 0 1 1.017-.495c.39-.144.838-.214 1.337-.214.57 0 1.087.083 1.55.254.462.17.855.442 1.174.817.321.374.57.86.75 1.458.178.599.268 1.335.268 2.21v8.434h-2.166zm5.4 0h2.166v-12.854h-2.166v12.853zm1.094-15.96c-.445 0-.8-.144-1.069-.427-.267-.286-.4-.662-.4-1.125 0-.448.133-.813.4-1.098.27-.286.624-.43 1.07-.43.428 0 .776.144 1.044.43.267.285.4.65.4 1.098 0 .463-.133.839-.4 1.125-.268.283-.616.427-1.045.427zm9.917 5.705c-.141-.162-.4-.38-.775-.657-.373-.277-.862-.414-1.469-.414-.57 0-1.006.132-1.31.4-.302.268-.455.59-.455.966 0 .481.14.877.415 1.19.277.313.699.648 1.27 1.004l.801.483c.874.518 1.56 1.076 2.058 1.672.499.599.75 1.37.75 2.318 0 1.017-.353 1.874-1.056 2.57-.705.695-1.716 1.044-3.034 1.044-.517 0-.973-.054-1.364-.16a5.899 5.899 0 0 1-1.028-.376c-.295-.141-.54-.299-.735-.468a4.897 4.897 0 0 1-.483-.468l1.042-1.714c.108.108.238.231.389.375a3.488 3.488 0 0 0 1.269.75c.267.09.58.132.937.132.64 0 1.132-.141 1.469-.427.339-.286.507-.635.507-1.044 0-.304-.038-.567-.119-.79a1.8 1.8 0 0 0-.361-.603 3.254 3.254 0 0 0-.589-.509c-.231-.16-.498-.34-.802-.535l-.802-.509c-.802-.517-1.428-1.062-1.884-1.633-.454-.572-.68-1.303-.68-2.197 0-.481.094-.922.28-1.325.186-.4.45-.75.788-1.044.34-.295.735-.527 1.19-.696a4.092 4.092 0 0 1 1.456-.254c.5 0 .928.047 1.283.146a3.93 3.93 0 0 1 1.566.83c.168.152.305.282.413.388l-.937 1.555zm9.304-.83h-2.808v7.121c0 .912.117 1.53.349 1.861.23.331.622.495 1.174.495.322 0 .598-.042.83-.132.23-.09.401-.171.507-.241l.294 1.74c-.088.071-.303.184-.64.335-.34.15-.793.227-1.364.227-1.105 0-1.934-.308-2.486-.923-.553-.616-.829-1.638-.829-3.067v-7.417h-1.55V121.3l1.55-.321.24-3.587h1.925v3.587h3.075l-.267 1.768zm10.503 2.57c0 .553-.018 1.03-.053 1.433-.034.4-.07.753-.106 1.057h-6.55c.072 1.517.398 2.633.977 3.346.58.716 1.413 1.071 2.498 1.071.375 0 .714-.042 1.017-.132a3.784 3.784 0 0 0 1.35-.698c.15-.124.263-.223.333-.292l.802 1.525c-.088.09-.223.219-.4.387-.18.171-.42.34-.723.511a5.222 5.222 0 0 1-1.121.441c-.447.124-.973.187-1.577.187-.802 0-1.53-.133-2.179-.4a4.113 4.113 0 0 1-1.658-1.247c-.453-.563-.806-1.276-1.055-2.142-.25-.865-.375-1.906-.375-3.12 0-1.142.13-2.128.388-2.958.258-.83.611-1.513 1.056-2.048a4.208 4.208 0 0 1 1.55-1.193 4.657 4.657 0 0 1 1.898-.387c1.228 0 2.192.387 2.886 1.164.697.776 1.042 1.942 1.042 3.494zm-4.06-2.892c-.769 0-1.382.321-1.847.963-.463.643-.73 1.57-.802 2.786h4.679c.018-.09.031-.219.04-.39.01-.169.014-.35.014-.549 0-.89-.18-1.584-.535-2.075-.357-.49-.874-.735-1.55-.735zm12.587.454c-.052-.036-.168-.079-.346-.133a2.594 2.594 0 0 0-.723-.08c-.676 0-1.206.182-1.59.548-.382.367-.654.763-.816 1.193v9.424h-2.163V120.98h1.977v1.741h.054c.09-.25.204-.495.348-.738.141-.24.319-.454.534-.641.214-.187.468-.335.762-.441.294-.108.645-.162 1.056-.162.303 0 .548.027.734.08.187.055.335.1.44.134l-.267 1.928zm2.138 10.952h2.166V120.98h-2.166v12.853zm1.097-15.959c-.445 0-.802-.144-1.07-.427-.267-.286-.4-.662-.4-1.125 0-.448.133-.813.4-1.098.268-.286.625-.43 1.07-.43.429 0 .775.144 1.042.43.267.285.402.65.402 1.098 0 .463-.135.839-.402 1.125-.267.283-.613.427-1.042.427zm13.365 15.96h-1.977v-1.446h-.054c-.054.106-.17.264-.348.469-.178.204-.404.4-.68.59a4.643 4.643 0 0 1-1.005.494c-.39.142-.826.214-1.31.214a4.392 4.392 0 0 1-1.536-.254 2.79 2.79 0 0 1-1.163-.817c-.32-.374-.564-.862-.735-1.458-.168-.599-.254-1.335-.254-2.21v-8.436h2.166v8.274c0 1.071.175 1.836.52 2.29.349.455.888.682 1.618.682.625 0 1.15-.155 1.577-.468a5.564 5.564 0 0 0 1.015-.922v-9.856h2.166v12.853zm10.051 0v-8.275c0-1.053-.152-1.811-.456-2.275-.303-.466-.792-.698-1.469-.698a3.066 3.066 0 0 0-1.684.47c-.214.133-.4.282-.562.442a7.68 7.68 0 0 0-.4.427v9.908h-2.165V120.98h1.977v1.447h.054c.09-.144.222-.318.402-.522.177-.205.4-.403.667-.59a3.8 3.8 0 0 1 .937-.468 3.593 3.593 0 0 1 1.201-.187c1.463 0 2.496.57 3.102 1.713a4.17 4.17 0 0 1 2.217-1.553c.357-.108.75-.16 1.177-.16 2.601 0 3.902 1.517 3.902 4.552v8.621h-2.165v-8.274c0-1.053-.187-1.811-.56-2.275-.375-.466-.927-.698-1.657-.698-.607 0-1.11.149-1.51.444-.402.294-.719.574-.95.844.036.195.063.405.08.627.019.223.028.46.028.711v8.621H320.5zm-174.36 20.764c0-1.305.168-2.392.508-3.267.339-.875.775-1.58 1.31-2.115a4.569 4.569 0 0 1 1.816-1.139 6.477 6.477 0 0 1 2.033-.335c.409 0 .766.031 1.07.094.303.063.552.138.747.228v-6.16l2.166-.24v19.172h-1.98v-1.366h-.05a3.264 3.264 0 0 1-.295.444c-.144.186-.34.373-.589.562-.249.187-.561.347-.936.482-.373.132-.811.2-1.31.2-.606 0-1.18-.12-1.723-.362-.543-.241-1.02-.624-1.43-1.15-.412-.527-.735-1.206-.975-2.037-.24-.83-.362-1.834-.362-3.01zm5.079 4.632a2.767 2.767 0 0 0 1.604-.468 3.014 3.014 0 0 0 .802-.79v-7.926a3.185 3.185 0 0 0-.681-.322c-.26-.09-.584-.135-.977-.135-.499 0-.966.086-1.402.255a2.739 2.739 0 0 0-1.137.844c-.32.393-.575.902-.761 1.527-.189.624-.28 1.391-.28 2.302 0 .894.073 1.639.226 2.237.15.597.36 1.08.627 1.445.267.367.57.63.91.79.339.162.694.24 1.069.24zm16.119-6.909c0 .554-.018 1.03-.054 1.434-.036.4-.072.753-.108 1.057h-6.548c.07 1.517.395 2.633.975 3.346.58.716 1.413 1.072 2.5 1.072.373 0 .712-.043 1.015-.133a3.784 3.784 0 0 0 1.35-.698c.15-.124.263-.223.335-.292l.802 1.525c-.09.09-.223.219-.402.387-.178.171-.418.34-.721.511a5.292 5.292 0 0 1-1.123.441c-.445.124-.97.187-1.577.187-.802 0-1.528-.133-2.179-.4a4.143 4.143 0 0 1-1.658-1.247c-.453-.563-.806-1.276-1.055-2.142-.25-.865-.373-1.906-.373-3.12 0-1.142.128-2.128.386-2.958.258-.83.611-1.513 1.056-2.048a4.245 4.245 0 0 1 1.55-1.193 4.664 4.664 0 0 1 1.898-.387c1.23 0 2.192.387 2.888 1.164.694.776 1.043 1.942 1.043 3.494zm-4.064-2.891c-.766 0-1.381.321-1.844.963-.465.643-.732 1.57-.802 2.786h4.677c.018-.09.031-.219.04-.39.01-.168.014-.35.014-.549 0-.89-.178-1.584-.535-2.075-.357-.49-.874-.735-1.55-.735zm12.482 1.152c-.141-.162-.4-.38-.775-.657s-.864-.414-1.469-.414c-.57 0-1.008.132-1.311.4-.301.268-.454.59-.454.966 0 .481.14.877.415 1.19.277.313.699.648 1.27 1.004l.801.483c.874.518 1.56 1.076 2.058 1.672.499.599.748 1.37.748 2.318 0 1.017-.35 1.875-1.056 2.57-.703.695-1.714 1.044-3.032 1.044-.517 0-.973-.054-1.364-.16a5.832 5.832 0 0 1-1.028-.376c-.295-.141-.54-.299-.737-.468a5.108 5.108 0 0 1-.48-.468l1.041-1.714c.108.108.236.231.389.375a3.488 3.488 0 0 0 1.27.75c.266.09.579.133.936.133.64 0 1.13-.142 1.469-.428.339-.286.507-.635.507-1.044 0-.304-.04-.567-.119-.79a1.837 1.837 0 0 0-.361-.603 3.333 3.333 0 0 0-.589-.509 30.94 30.94 0 0 0-.802-.535l-.802-.509c-.801-.517-1.43-1.062-1.884-1.633-.454-.572-.68-1.303-.68-2.197 0-.481.091-.922.28-1.325.187-.4.45-.75.789-1.044a3.796 3.796 0 0 1 1.188-.696 4.113 4.113 0 0 1 1.458-.254c.498 0 .925.047 1.282.146a3.8 3.8 0 0 1 .923.376c.259.151.472.302.64.455.171.15.308.281.416.387l-.937 1.555zm10.879-6.616h-1.95v-1.607h6.229v1.607h-1.952v15.185h2.004v1.685h-6.335v-1.685h2.004v-15.185zm13.9 16.87v-8.274c0-1.09-.183-1.87-.546-2.343-.367-.472-.924-.708-1.672-.708-.642 0-1.177.16-1.603.481-.43.322-.766.633-1.016.936v9.908h-2.165v-12.853h1.977v1.447h.054c.053-.108.168-.264.348-.468.177-.207.409-.403.694-.59a4.908 4.908 0 0 1 1.015-.495 3.865 3.865 0 0 1 1.337-.214c.57 0 1.087.083 1.552.254.462.17.853.442 1.174.815.322.376.571.862.748 1.46.18.6.268 1.335.268 2.21v8.434h-2.166zm12.403 0v-8.274c0-1.09-.182-1.87-.548-2.343-.364-.472-.921-.708-1.671-.708-.64 0-1.175.16-1.604.481-.427.322-.766.633-1.015.936v9.908h-2.166v-12.853h1.98v1.447h.053c.052-.108.169-.264.346-.468.18-.207.411-.403.696-.59a4.853 4.853 0 0 1 1.016-.495c.39-.144.838-.214 1.336-.214.57 0 1.087.083 1.55.254.465.17.856.442 1.177.815.321.376.57.862.748 1.46.178.6.267 1.335.267 2.21v8.434h-2.165zm13.632-8.515c0 .554-.018 1.03-.054 1.434-.035.4-.07.753-.105 1.057h-6.55c.072 1.517.397 2.633.977 3.346.577.716 1.41 1.072 2.498 1.072.375 0 .712-.043 1.015-.133a3.784 3.784 0 0 0 1.35-.698 5.11 5.11 0 0 0 .335-.292l.802 1.525c-.09.09-.223.219-.4.387-.18.171-.42.34-.723.511a5.244 5.244 0 0 1-1.124.441c-.444.124-.97.187-1.576.187-.802 0-1.528-.133-2.177-.4a4.113 4.113 0 0 1-1.658-1.247c-.456-.563-.806-1.276-1.055-2.142-.25-.865-.376-1.906-.376-3.12 0-1.142.13-2.128.389-2.958.258-.83.609-1.513 1.056-2.048a4.208 4.208 0 0 1 1.55-1.193 4.657 4.657 0 0 1 1.898-.387c1.228 0 2.192.387 2.886 1.164.694.776 1.042 1.942 1.042 3.494zm-4.063-2.891c-.766 0-1.381.321-1.844.963-.463.643-.73 1.57-.802 2.786h4.679c.018-.09.031-.219.04-.39.007-.168.011-.35.011-.549 0-.89-.177-1.584-.534-2.075-.355-.49-.872-.735-1.55-.735zm12.59.454a1.556 1.556 0 0 0-.348-.133 2.566 2.566 0 0 0-.721-.08c-.676 0-1.206.182-1.59.548-.382.367-.654.763-.816 1.193v9.424h-2.165v-12.853h1.979v1.741h.054c.087-.25.204-.495.345-.738.144-.24.322-.454.535-.641a2.4 2.4 0 0 1 .762-.441c.294-.108.646-.162 1.058-.162.303 0 .548.027.734.081.186.054.335.099.44.133l-.267 1.928zm9.142 10.952v-8.274c0-1.09-.182-1.87-.548-2.343-.366-.472-.923-.708-1.671-.708-.64 0-1.175.16-1.604.481-.427.322-.766.633-1.015.936v9.908h-2.166v-12.853h1.98v1.447h.053c.052-.108.169-.264.346-.468.18-.207.411-.403.696-.59a4.853 4.853 0 0 1 1.016-.495c.39-.144.838-.214 1.336-.214.57 0 1.087.083 1.55.254a2.79 2.79 0 0 1 1.177.815c.32.376.57.862.748 1.46.178.6.267 1.335.267 2.21v8.434h-2.165zm5.052-1.525c0-.482.14-.844.415-1.085.274-.24.6-.362.975-.362.517 0 .94.216 1.27.643.33.428.494 1.09.494 1.983 0 .605-.093 1.136-.281 1.593a3.898 3.898 0 0 1-.735 1.177 4.34 4.34 0 0 1-1.002.817 6.152 6.152 0 0 1-1.082.508l-.454-.936a4.672 4.672 0 0 0 1.361-1.03c.357-.403.553-.997.589-1.783h-.079c-.41 0-.76-.128-1.042-.387-.285-.259-.43-.639-.43-1.138zm16.492-9.56h-2.62v11.085h-2.165V149.75h-1.55v-1.446l1.55-.295v-2.57c0-.698.099-1.294.294-1.793.196-.502.454-.912.775-1.234a2.827 2.827 0 0 1 1.123-.695 4.242 4.242 0 0 1 1.364-.214c.463 0 .856.061 1.177.187.319.124.535.223.64.295l-.454 1.793a2.718 2.718 0 0 0-.453-.227 1.907 1.907 0 0 0-.724-.122c-.516 0-.907.162-1.174.484-.268.32-.402.91-.402 1.767v2.302h2.886l-.267 1.768zm11.12 11.085h-1.978v-1.444h-.054c-.052.105-.169.263-.346.468-.18.204-.407.4-.683.59a4.623 4.623 0 0 1-1.002.494 3.834 3.834 0 0 1-1.31.214c-.57 0-1.082-.086-1.536-.254a2.775 2.775 0 0 1-1.163-.817c-.321-.374-.566-.862-.735-1.458-.17-.599-.254-1.335-.254-2.21v-8.436h2.166v8.274c0 1.071.173 1.836.52 2.29.347.455.886.683 1.618.683.622 0 1.148-.156 1.577-.469a5.64 5.64 0 0 0 1.015-.922v-9.856h2.166v12.853zm-5.318-16.548c0 .412-.126.74-.376.99a1.23 1.23 0 0 1-.91.376c-.354 0-.657-.124-.907-.376-.25-.25-.375-.578-.375-.99 0-.41.126-.74.375-.99.25-.25.553-.376.908-.376.357 0 .66.126.91.376.249.25.375.58.375.99zm4.115 0c0 .412-.124.74-.373.99a1.23 1.23 0 0 1-.91.376c-.357 0-.658-.124-.91-.376-.249-.25-.373-.578-.373-.99 0-.41.124-.74.373-.99.252-.25.553-.376.91-.376s.66.126.91.376.373.58.373.99zm10.157 5.596a1.571 1.571 0 0 0-.346-.133 2.594 2.594 0 0 0-.723-.08c-.676 0-1.206.182-1.59.548-.382.367-.654.763-.816 1.193v9.424h-2.165v-12.853h1.979v1.741h.054c.087-.25.204-.495.346-.738.143-.24.32-.454.536-.641.214-.187.468-.335.762-.441.294-.108.645-.162 1.056-.162.303 0 .548.027.734.081.187.054.335.099.44.133l-.267 1.928zm17.323-2.81c0 .641-.081 1.204-.243 1.685-.16.484-.377.898-.653 1.247a3.504 3.504 0 0 1-.964.844 4.712 4.712 0 0 1-1.134.481v.054c.48.088.93.259 1.35.509.417.25.784.562 1.096.936.31.376.561.817.748 1.325a4.83 4.83 0 0 1 .28 1.674c0 .732-.125 1.402-.375 2.01a4.12 4.12 0 0 1-1.163 1.58c-.526.445-1.188.794-1.99 1.044s-1.755.373-2.86.373h-3.769v-18.477h3.554c1.087 0 2.019.113 2.794.336.775.222 1.413.54 1.912.952.498.409.86.904 1.082 1.485.223.58.335 1.226.335 1.942zm-2.354.078c0-.855-.303-1.561-.908-2.115-.606-.553-1.56-.83-2.861-.83h-1.229v6.375h1.204c1.247 0 2.19-.304 2.832-.912.64-.607.962-1.446.962-2.518zm.348 8.518c0-1.002-.326-1.792-.975-2.372-.651-.578-1.581-.869-2.794-.869h-1.577v6.481h1.444c1.373 0 2.366-.272 2.979-.817.615-.544.923-1.352.923-2.423zm4.598 1.901c0-.752.142-1.375.427-1.874.285-.502.67-.907 1.15-1.22.48-.313 1.047-.536 1.698-.668.65-.135 1.341-.203 2.071-.203h.667v-1.23c0-1.09-.19-1.84-.575-2.251-.382-.41-.92-.614-1.615-.614-.642 0-1.177.137-1.604.414a9.585 9.585 0 0 0-1.017.736l-.908-1.445c.142-.144.324-.304.548-.484.223-.178.495-.346.816-.508.319-.16.685-.293 1.094-.401a5.48 5.48 0 0 1 1.39-.16c1.319 0 2.318.365 2.994 1.096.679.734 1.016 1.91 1.016 3.535v5.864c0 .554.018 1.094.053 1.62.036.527.072.88.108 1.058h-2.06l-.078-1.417h-.054a3.51 3.51 0 0 1-.321.549 2.677 2.677 0 0 1-.535.562 3.256 3.256 0 0 1-.775.441 2.812 2.812 0 0 1-1.069.187c-.48 0-.932-.09-1.35-.268a3.326 3.326 0 0 1-1.817-1.888 3.943 3.943 0 0 1-.254-1.43zm3.875 1.74c.303 0 .57-.045.802-.136.231-.087.433-.195.602-.319.168-.126.312-.263.426-.416.117-.151.22-.282.308-.387v-2.84l-.694.027c-1.033.036-1.817.214-2.352.535-.534.322-.802.84-.802 1.553 0 .662.15 1.157.454 1.487.303.331.721.496 1.256.496zm16.518 1.525h-1.976v-1.444h-.054a2.613 2.613 0 0 1-.348.468c-.178.204-.405.4-.68.59a4.675 4.675 0 0 1-1.003.494 3.834 3.834 0 0 1-1.31.214c-.57 0-1.082-.086-1.538-.254a2.768 2.768 0 0 1-1.161-.817c-.321-.374-.566-.862-.735-1.458-.17-.599-.256-1.335-.256-2.21v-8.436h2.166v8.274c0 1.071.175 1.836.52 2.29.349.455.888.683 1.618.683.624 0 1.15-.156 1.577-.469a5.585 5.585 0 0 0 1.017-.922v-9.856h2.163v12.853zM155.71 187.838h-1.977v-1.444h-.054c-.054.105-.17.263-.348.468-.177.204-.404.4-.68.59a4.643 4.643 0 0 1-1.005.494c-.39.142-.826.214-1.31.214-.57 0-1.082-.086-1.535-.254a2.79 2.79 0 0 1-1.164-.817c-.319-.374-.566-.862-.735-1.458-.168-.599-.253-1.335-.253-2.21v-8.436h2.165v8.274c0 1.071.173 1.836.521 2.29.348.455.887.683 1.617.683.625 0 1.15-.156 1.577-.469a5.64 5.64 0 0 0 1.016-.922v-9.856h2.165v12.853zm10.319 0v-8.274c0-1.09-.184-1.87-.548-2.342-.366-.473-.923-.71-1.671-.71-.643 0-1.177.16-1.604.482-.427.322-.766.633-1.015.936v9.908h-2.166v-12.853h1.977v1.447h.054c.054-.108.17-.264.348-.468.178-.207.409-.403.694-.59a4.874 4.874 0 0 1 1.018-.495c.39-.144.835-.214 1.336-.214.568 0 1.085.083 1.55.255a2.77 2.77 0 0 1 1.175.814c.321.376.57.862.748 1.46.18.6.267 1.335.267 2.21v8.434h-2.163zm4.811-6.237c0-1.306.169-2.393.508-3.268.337-.875.775-1.58 1.31-2.115a4.553 4.553 0 0 1 1.817-1.139 6.464 6.464 0 0 1 2.03-.335c.411 0 .769.031 1.07.095.303.063.552.137.75.227v-6.16l2.165-.24v19.172h-1.979v-1.366h-.054a3.06 3.06 0 0 1-.882 1.006c-.25.187-.562.347-.935.482-.375.132-.81.2-1.31.2-.606 0-1.18-.12-1.724-.362-.544-.241-1.02-.624-1.43-1.15-.41-.527-.736-1.206-.976-2.037-.24-.83-.36-1.834-.36-3.01zm5.08 4.63c.336 0 .64-.042.907-.132a2.822 2.822 0 0 0 1.19-.75c.133-.144.236-.267.308-.375v-7.926a3.257 3.257 0 0 0-.683-.322c-.258-.09-.584-.135-.975-.135a3.86 3.86 0 0 0-1.404.255 2.767 2.767 0 0 0-1.136.844c-.322.393-.575.902-.762 1.527-.186.624-.28 1.391-.28 2.303 0 .893.076 1.638.226 2.236.153.597.362 1.08.63 1.445.267.367.57.63.909.79.337.162.694.24 1.07.24zm26.273 1.607h-2.325v-8.407h-7.617v8.407h-2.327v-18.477h2.327v8.223h7.617v-8.223h2.325v18.477zm11.896-8.515c0 .554-.018 1.03-.054 1.434-.036.4-.072.754-.108 1.057h-6.547c.072 1.517.395 2.633.975 3.346.579.716 1.412 1.072 2.5 1.072.372 0 .712-.043 1.015-.133a3.784 3.784 0 0 0 1.35-.698 5.11 5.11 0 0 0 .335-.292l.801 1.525c-.09.09-.222.219-.402.387-.177.171-.417.34-.72.511a5.292 5.292 0 0 1-1.124.441c-.445.124-.97.187-1.577.187-.802 0-1.527-.133-2.178-.4a4.143 4.143 0 0 1-1.658-1.247c-.454-.563-.807-1.276-1.056-2.142-.25-.865-.373-1.906-.373-3.12 0-1.142.128-2.128.387-2.958.258-.83.61-1.513 1.055-2.048a4.233 4.233 0 0 1 1.552-1.193 4.646 4.646 0 0 1 1.896-.387c1.231 0 2.193.387 2.889 1.164.694.776 1.042 1.942 1.042 3.494zm-4.063-2.891c-.766 0-1.382.321-1.844.963-.463.643-.73 1.57-.802 2.786h4.676c.018-.09.032-.219.04-.39.01-.168.014-.35.014-.549 0-.89-.177-1.584-.534-2.074-.355-.491-.874-.736-1.55-.736zm6.95 11.406h2.165v-12.853h-2.165v12.853zm1.096-15.959c-.445 0-.802-.144-1.07-.427-.267-.286-.402-.662-.402-1.125 0-.448.135-.813.402-1.098.268-.286.625-.43 1.07-.43.426 0 .775.144 1.042.43.267.285.402.65.402 1.098 0 .463-.135.84-.402 1.125-.267.283-.616.427-1.042.427zm11.118 15.96v-8.275c0-1.053-.15-1.811-.453-2.275-.304-.466-.793-.698-1.472-.698a3.06 3.06 0 0 0-1.682.47 3.124 3.124 0 0 0-.562.442c-.161.16-.294.304-.402.427v9.908h-2.165v-12.853h1.979v1.447h.054c.09-.144.222-.318.4-.522a3.72 3.72 0 0 1 .67-.59c.266-.187.579-.344.933-.468.358-.126.76-.187 1.204-.187 1.46 0 2.496.57 3.1 1.713a4.22 4.22 0 0 1 .508-.576c.216-.205.465-.392.75-.563.285-.169.604-.306.962-.414.357-.108.748-.16 1.177-.16 2.6 0 3.901 1.517 3.901 4.552v8.621h-2.165v-8.274c0-1.053-.187-1.811-.562-2.275-.373-.466-.925-.698-1.657-.698-.605 0-1.108.149-1.51.444a5.82 5.82 0 0 0-.948.844c.036.195.06.405.079.627.018.223.027.46.027.711v8.621h-2.166zm11.389-3.266c0-.751.141-1.375.427-1.874.285-.502.669-.907 1.15-1.22.48-.313 1.046-.536 1.698-.668.649-.135 1.339-.203 2.07-.203h.668v-1.23c0-1.09-.191-1.84-.575-2.251-.382-.41-.921-.614-1.617-.614-.64 0-1.175.137-1.604.414a9.762 9.762 0 0 0-1.015.736l-.908-1.445c.142-.144.323-.304.548-.484.222-.178.494-.346.815-.508.32-.16.686-.293 1.094-.401a5.48 5.48 0 0 1 1.39-.16c1.32 0 2.317.365 2.995 1.096.676.734 1.015 1.91 1.015 3.535v5.864c0 .554.018 1.094.054 1.62.036.527.072.88.108 1.058h-2.06l-.078-1.417h-.054c-.072.16-.18.342-.321.549a2.735 2.735 0 0 1-.535.562 3.256 3.256 0 0 1-.775.441 2.82 2.82 0 0 1-1.07.187c-.48 0-.931-.09-1.35-.268a3.326 3.326 0 0 1-1.816-1.888 3.896 3.896 0 0 1-.254-1.43zm3.875 1.74c.303 0 .57-.045.801-.135.232-.088.434-.196.602-.32a2.09 2.09 0 0 0 .427-.416c.117-.151.218-.282.308-.387v-2.84l-.694.027c-1.033.036-1.817.214-2.352.535-.535.322-.802.84-.802 1.553 0 .662.15 1.157.454 1.487.303.331.72.496 1.256.496zm13.016-9.56h-2.805v7.123c0 .91.117 1.53.348 1.86.231.331.622.496 1.175.496.321 0 .597-.043.829-.133.231-.09.402-.171.507-.241l.295 1.74c-.09.071-.304.184-.64.335-.34.15-.794.227-1.364.227-1.105 0-1.934-.308-2.487-.923-.552-.616-.829-1.638-.829-3.067v-7.417h-1.55v-1.446l1.55-.322.24-3.587h1.926v3.587h3.073l-.268 1.768zM103.003 130.578c2.318 3.642 4.135 3.579 6.877 3.579-2.268-1.726-3.768-3.937-4.484-5.066l-4.238-6.73a9.95 9.95 0 0 0-3.118-5.466c.544-.207 1-.42 1.271-.628-2.766 0-5.508-1.394-7.017-1.394-.97 0-1.596.576-1.596 1.336.064.848.943 1.712 2.568 1.712.367 0 .838-.05 1.355-.133.879 1.217 1.588 2.315 1.588 3.885 0 2.946-3.548 5.243-7.13 5.243-.205 0-.397-.007-.599-.023-.326-.728-1.405-1.956-1.405-3.351 0-2.342 1.539-4.254 1.539-6.573 0-1.442-.71-2.332-.982-2.703.442-.408.923-.905 1.034-1.247-.254.11-.558.126-1.002.126-1.715 0-3.116-.445-4.482-.445-.777 0-.988.238-.988.466 0 .083.014.168.036.209a4.765 4.765 0 0 0-.888-.245 6.945 6.945 0 0 0-1.296-.115c-1.659 0-2.248.69-2.248 1.282 0 .5.397 1.415.848 2.11.645-.322 1.42-.542 1.776-.542.88 0 1.663.832 2.078 1.82-.591.07-.705.096-1.303.096-1.616 0-2.715-.576-2.941-.576-.023 0-.066.012-.066.048 0 .225.458.818 1.362 1.145 1.187.431 2.97.611 3.268.66 0 .053-.302.61-.64.718a.39.39 0 0 1-.21.01c-1.242-.246-1.589-.35-3.164-.943-.05-.018-.077.011-.077.063 0 .616 1.614 1.982 3.06 2.506-1.208 1.53-2.717 3.095-3.427 5.481a7.595 7.595 0 0 1-.598.023c-3.582 0-7.133-2.297-7.133-5.243 0-1.57.711-2.668 1.59-3.885.517.083.986.133 1.356.133 1.624 0 2.503-.864 2.567-1.712 0-.76-.623-1.336-1.598-1.336-1.509 0-4.248 1.394-7.017 1.394.274.207.727.421 1.27.628a9.95 9.95 0 0 0-3.117 5.466l-4.235 6.73c-.714 1.13-2.219 3.34-4.487 5.066 2.742 0 4.56.063 6.88-3.58l2.17-3.452c.164.45.36.884.594 1.312l-4.321 6.862c-.72 1.138-2.21 3.332-4.487 5.066 2.742 0 4.56.063 6.877-3.577l3.721-5.91c.279.294.571.582.88.856l-5.249 8.34c-.72 1.141-2.202 3.327-4.486 5.062 2.742 0 4.561.067 6.88-3.577l5.116-8.131c.337.211.682.418 1.038.612l-6.245 9.92c-.721 1.142-2.203 3.32-4.485 5.06 2.742 0 4.56.063 6.88-3.576l6.43-10.219c.38.144.767.283 1.159.41l-7.267 11.543c-.71 1.125-2.226 3.345-4.483 5.061 2.74 0 4.557.063 6.878-3.574l7.745-12.306.233.04c.211.666.358 1.287.358 1.905 0 3.867-2.556 7.282-5.624 9.918.197.085.537.115.854.115.633 0 1.043-.034 1.328-.084-.709 1.604-2.236 3.676-3.007 4.746-1.006-.18-2.465-.319-3.421-.319-1.002 0-1.115.583-1.115 1.1 0 .902.423 1.622.92 2.02.186-.461.56-1.078 2.408-1.078.037 0 .1.005.186.012-.541.596-2.234 1.954-2.234 3.048 0 .726.802 1.81 1.856 1.81-.064-.234-.055-.447-.055-.61 0-.885.791-1.922 1.46-2.644-.02.213-.012.193-.012.443 0 2.096.193 3.057 1.532 3.057.657 0 1.11-.358 1.267-.466-.87-.794-.915-1.42-.915-2.594.002-.306.002-.605.006-1.016a5.18 5.18 0 0 0-.045-.882c.48-.065.675-.065 1.042-.065 0 0 1.904-.149 2.362.832.516-.47 1.266-1.134 1.266-1.865 0-.483-.23-1.03-1.21-1.03-.371 0-1.538.227-2.515.227.263-.58 1.43-2.276 2.443-3.507.151.477.392.992.922 1.415.072-.791.541-3.295 1.788-4.757.145.987.34 2.002.34 4.141 0 5.205-1.26 9.05-3.936 9.782.349.603 1.083 1.143 1.849 1.143.976 0 1.511-1.098 2.055-2.134.283.762 1.065 2.638 1.849 2.638s1.566-1.876 1.85-2.638c.543 1.036 1.075 2.134 2.057 2.134.763 0 1.5-.54 1.849-1.143-2.677-.733-3.939-4.577-3.939-9.782 0-2.14.195-3.154.34-4.141 1.247 1.462 1.716 3.966 1.788 4.757.533-.423.77-.938.925-1.415 1.01 1.23 2.18 2.927 2.442 3.507-.979 0-2.146-.227-2.515-.227-.979 0-1.212.547-1.212 1.03 0 .731.752 1.395 1.269 1.865.455-.98 2.36-.832 2.36-.832.368 0 .563 0 1.043.065-.045.259-.047.614-.045.882.002.411.004.71.004 1.016 0 1.175-.043 1.8-.913 2.594.157.108.61.466 1.267.466 1.34 0 1.53-.96 1.53-3.057 0-.25.009-.23-.01-.443.669.722 1.46 1.759 1.46 2.645 0 .162.009.375-.057.61 1.056 0 1.858-1.085 1.858-1.811 0-1.094-1.695-2.452-2.236-3.048.088-.007.152-.012.186-.012 1.85 0 2.225.617 2.41 1.078.495-.398.918-1.118.918-2.02 0-.517-.11-1.1-1.112-1.1-.957 0-2.418.14-3.422.32-.773-1.071-2.298-3.143-3.01-4.747.286.05.699.084 1.329.084.317 0 .659-.03.856-.115-3.068-2.636-5.626-6.05-5.626-9.918 0-.618.15-1.239.36-1.905l.233-.04 7.746 12.306c2.318 3.637 4.137 3.574 6.877 3.574-2.257-1.716-3.773-3.936-4.482-5.06l-7.27-11.545c.395-.126.78-.265 1.16-.409l6.431 10.219c2.32 3.64 4.136 3.576 6.88 3.576-2.282-1.74-3.764-3.918-4.484-5.06l-6.245-9.92c.353-.194.7-.4 1.035-.612l5.119 8.131c2.32 3.644 4.135 3.577 6.877 3.577-2.282-1.735-3.764-3.92-4.484-5.061l-5.248-8.34c.308-.275.603-.563.877-.858l3.72 5.911c2.32 3.64 4.138 3.577 6.88 3.577-2.28-1.734-3.766-3.928-4.487-5.066l-4.32-6.862a9.44 9.44 0 0 0 .593-1.312l2.17 3.453zm-34.684-7.904c0-2.562 1.879-4.591 2.538-5.163.161.039.32.077.478.108-.704.853-1.944 2.279-1.944 4.168 0 3.752 4.038 7.012 8.611 7.012-.03.32-.045.659-.045 1.005 0 .553.03 1.069.086 1.554-5.171-.029-9.724-4.197-9.724-8.684zm7.007 30.757-.03.088h.091c1.45 0 2.157-.103 2.626-.17.245-.032.422-.06.612-.06.374 0 .662.037.662.493 0 .31-.363.797-.716 1.08-.535-.5-1.276-.598-2.364-.598-.507 0-1.173.09-1.53.14l-.056.006-.063.009.02.169c.043.299.095.67.095 1.171l-.007.455-.006.564c0 1.224.17 1.921.6 2.45-.11.04-.292.074-.408.074-.766 0-.988-.33-.988-2.521 0-.439-.025-.853-.038-1.127l-.023-.407-.097.076c-1.138.86-2.31 2.398-2.38 3.55-.342-.22-.713-.713-.713-1.091 0-.628.951-1.57 2.05-2.661l.635-.63.08-.081-.207-.05c-.238-.063-.678-.17-1.052-.17-1.234 0-2.007.229-2.483.746-.172-.247-.315-.82-.315-1.156 0-.218.043-.371.13-.459.108-.103.276-.103.423-.103h.032c1.36 0 2.984.243 3.62.344l.037.009.025-.03c.109-.148 2.703-3.576 3.376-5.396.157-.056.29-.1.56-.1.512 0 .652.343.8.865-1.62 1.955-2.631 3.475-2.998 4.521zm13.99-5.387c.272 0 .403.045.562.101.673 1.82 3.265 5.248 3.374 5.397l.025.029.039-.01c.634-.1 2.261-.343 3.62-.343h.03c.15 0 .317 0 .424.103.088.088.131.24.131.459 0 .335-.142.909-.315 1.156-.476-.517-1.248-.747-2.485-.747-.372 0-.812.108-1.05.171l-.097.023-.111.027.714.71c1.1 1.092 2.053 2.034 2.053 2.662 0 .378-.372.87-.714 1.09-.073-1.151-1.242-2.69-2.382-3.549l-.097-.074-.018.405c-.018.274-.041.688-.041 1.127 0 2.19-.224 2.521-.988 2.521-.118 0-.297-.034-.408-.074.43-.529.6-1.226.6-2.45l-.006-.564-.007-.455c0-.501.052-.872.093-1.171l.023-.17-.12-.015c-.359-.05-1.022-.14-1.53-.14-1.09 0-1.829.1-2.364.599-.353-.283-.716-.77-.716-1.08 0-.456.286-.492.662-.492.19 0 .367.027.612.058.469.068 1.174.171 2.626.171h.089l-.028-.088c-.367-1.046-1.377-2.566-3-4.52.148-.523.29-.867.8-.867zm-6.005-29.916a4.713 4.713 0 0 0-.942-1.865c-.4-.468-1.059-1.021-1.947-1.021-.406 0-1.085.186-1.518.369-.163-.293-.478-.997-.478-1.314 0-.326.557-.657 1.62-.657 2.336 0 3.734 1.048 3.734 2.807 0 .619-.247 1.181-.469 1.68zm1.05-2.288a3.026 3.026 0 0 0-.565-1.332c.014-.456.202-.89.94-.533-.398.405-.092 1.123-.092 1.123s.815-.376.648-.911c1.21.288.34 1.9-.932 1.653zm4.55 15.518c.06-.501.097-1.023.097-1.554 0-.29.002-.627-.034-1.008 4.516-.065 8.477-3.293 8.477-7.009 0-1.89-1.242-3.315-1.944-4.168.158-.031.317-.07.476-.108.661.572 2.54 2.6 2.54 5.163 0 4.456-4.487 8.592-9.612 8.684z"/>
    </g>
</svg>
