<svg width="392" height="392" xmlns="http://www.w3.org/2000/svg" xmlns:xlink="http://www.w3.org/1999/xlink">
    <defs>
        <path id="a" d="M0 0h269v121H0z"/>
        <path id="c" d="M0 0h271v36H0z"/>
    </defs>
    <g fill="none" fill-rule="evenodd">
        <path fill="#FFF" d="M0 0h392v392H0z"/>
        <g transform="translate(23 109)">
            <mask id="b" fill="#fff">
                <use xlink:href="#a"/>
            </mask>
            <path d="M215.036 93.624c0 15.076 12.013 27.301 26.857 27.37l27.107.002-.002-27.372c0-15.121-12.08-27.377-26.982-27.377-14.9 0-26.98 12.256-26.98 27.377zm-161.075.004.002-.004c0-.003-.002-.003-.002-.005V27.38C53.961 12.258 41.883 0 26.981 0H0v93.349h.016c-.003.092-.016.182-.016.275C0 108.744 12.08 121 26.981 121c14.782 0 26.773-12.064 26.965-27.018h.015v-.354zm71.68-.004V27.379C125.64 12.258 113.562 0 98.66 0S71.679 12.258 71.679 27.379v66.245c0 15.12 12.078 27.376 26.982 27.376 14.901 0 26.98-12.256 26.98-27.376zm71.68 0V27.379C197.32 12.258 185.24 0 170.337 0c-14.901 0-26.98 12.258-26.982 27.379v66.245c0 15.12 12.081 27.376 26.982 27.376 14.902 0 26.982-12.256 26.982-27.376zm71.677-66.245C268.998 12.258 256.918 0 242.016 0c-14.9 0-26.98 12.258-26.98 27.379 0 15.12 12.08 27.376 26.98 27.376 14.901 0 26.982-12.256 26.982-27.376z" fill="#1A1919" mask="url(#b)"/>
        </g>
        <g transform="translate(104 248)">
            <mask id="d" fill="#fff">
                <use xlink:href="#c"/>
            </mask>
            <path d="M236.409 35.433h6.126V23.62c0-3.163.505-8.176 4.58-8.176 3.526 0 3.526 3.216 3.526 5.485v14.505h6.126V23.62c0-3.163.504-8.176 4.581-8.176 3.526 0 3.526 3.216 3.526 5.485v14.505H271V20.076c0-5.433-1.646-9.54-7.457-9.54-2.882 0-5.95 1.37-7.369 4.297-1.326-3.021-3.657-4.298-6.953-4.298-2.29 0-5.082.994-7.006 3.966h-.092v-3.399h-5.714v24.331zm-12.493 0h6.126V0h-6.126v35.433zM191.058 23.53c0 8.838 4.848 12.472 13.04 12.472s13.04-3.634 13.04-12.472V2.456h-6.402V21.5c0 5.622-1.74 9.31-6.638 9.31s-6.638-3.688-6.638-9.31V2.456h-6.402V23.53zm-46.814 11.904h6.123V23.62c0-3.163.508-8.176 4.583-8.176 3.526 0 3.526 3.216 3.526 5.485v14.505h6.124V23.62c0-3.163.506-8.176 4.583-8.176 3.526 0 3.526 3.216 3.526 5.485v14.505h6.126V20.076c0-5.433-1.646-9.54-7.455-9.54-2.884 0-5.953 1.37-7.371 4.297-1.328-3.021-3.66-4.298-6.953-4.298-2.29 0-5.082.994-7.006 3.966h-.092v-3.399h-5.714v24.331zm-6.23-24.33h-6.125V23.01c0 3.121-.963 8.081-5.406 8.081-3.935 0-3.981-4.015-3.981-6.996V11.102h-6.126V26.46c0 5.482 2.423 9.54 8.001 9.54 3.207 0 5.864-1.509 7.74-3.87h.091v3.303h5.807v-24.33zm-28.187 17.811c-2.287 1.326-4.847 2.46-7.824 2.46-3.8 0-6.456-2.22-6.73-6.148h16.29c0-8.501-2.469-14.69-11.208-14.69-7.323 0-10.934 5.809-10.934 12.85 0 7.989 4.526 12.615 12.309 12.615 3.296 0 5.856-.66 8.097-1.935v-5.152zm-14.554-8.027c.274-3.265 2.014-5.726 5.448-5.726 3.434 0 4.808 2.65 4.992 5.726h-10.44zm-10.25-9.45c-1.92-.43-3.794-.902-6.679-.902-4.806 0-9.243 2.316-9.243 7.56 0 8.79 10.663 5.527 10.663 10.304 0 2.363-2.473 2.976-4.031 2.976-2.103 0-4.117-.613-6.036-1.61l-.366 5.196c2.241.613 4.618 1.04 6.951 1.04 4.993 0 9.884-2.265 9.884-7.937 0-8.788-10.663-6.332-10.663-10.207 0-2.08 1.97-2.696 3.62-2.696 2.241 0 3.614.377 5.49 1.04l.41-4.764zm-20.732-.335h-6.126v11.91c0 3.12-.96 8.08-5.404 8.08-3.937 0-3.983-4.015-3.983-6.996V11.102h-6.126V26.46c0 5.482 2.423 9.54 8.004 9.54 3.204 0 5.86-1.509 7.739-3.87h.09v3.303h5.806v-24.33zM0 35.433h6.128V8.311l.092-.094 8.606 27.216h6.132l8.606-27.216h.092v27.216h6.126V2.456H25.535l-7.597 24.991h-.092l-7.599-24.99H0v32.976z" fill="#1A1919" mask="url(#d)"/>
        </g>
    </g>
</svg>
