<svg width="226" height="171" xmlns="http://www.w3.org/2000/svg">
    <g fill-rule="nonzero" fill="none">
        <path fill="#C6F9FF" d="M3.8 2.85h184.3V133H3.8z"/>
        <path d="m195.75 140.65 25.6 25.6-25.6-25.6zm-25.597-61.8c19.993 0 36.201 16.208 36.201 36.201 0 9.999-4.052 19.048-10.603 25.6-6.552 6.552-15.601 10.603-25.598 10.603-19.995 0-36.203-16.208-36.203-36.203 0-19.993 16.208-36.201 36.203-36.201z" fill="#2DE5FC"/>
        <path d="M149.625 48.45c7.588 0 13.775-6.19 13.775-13.775 0-7.588-6.187-13.775-13.775-13.775s-13.775 6.187-13.775 13.775c0 7.586 6.187 13.775 13.775 13.775z" fill="#FFF"/>
        <path d="M4.75 92.905V133h133.73a36.78 36.78 0 0 1-4.974-18.534A36.755 36.755 0 0 1 145.35 87.37l-20.874-22.952-33.51 35.17L46.986 50.35 4.75 92.905z" fill="#80F883"/>
        <path d="m223.862 163.485-22.783-22.811c5.832-7.23 9-16.168 9-25.594 0-14.083-7.16-26.524-18.027-33.866V4.403A4.4 4.4 0 0 0 187.655 0H4.397A4.4 4.4 0 0 0 0 4.403V133.46a4.4 4.4 0 0 0 4.397 4.404H135.47c7.333 10.879 19.76 18.047 33.828 18.047 9.413 0 18.34-3.171 25.562-9.01l22.784 22.81a4.38 4.38 0 0 0 3.11 1.289 4.405 4.405 0 0 0 3.11-7.515zM8.795 129.058V95.521l37.59-37.635 7.082 7.878a4.395 4.395 0 0 0 6.211.327 4.406 4.406 0 0 0 .327-6.217L49.822 48.546a4.4 4.4 0 0 0-3.154-1.455 4.383 4.383 0 0 0-3.224 1.288l-34.65 34.69V8.804h174.463v67.91a40.554 40.554 0 0 0-13.96-2.464 40.544 40.544 0 0 0-24.219 7.999l-17.924-19.766a4.397 4.397 0 0 0-3.195-1.443 4.411 4.411 0 0 0-3.233 1.354l-30.17 31.463-7.018-7.806a4.394 4.394 0 0 0-6.21-.328A4.407 4.407 0 0 0 77 91.942l10.183 11.327a4.387 4.387 0 0 0 3.197 1.456l.07.002a4.39 4.39 0 0 0 3.173-1.355l30.184-31.479 14.138 15.588c-.064.485-.047.977.051 1.457-5.916 7.087-9.482 16.205-9.482 26.142 0 4.908.871 9.615 2.463 13.977H8.795v.001zm183.12 8.668c-6.042 6.048-14.074 9.38-22.618 9.38-17.638 0-31.988-14.366-31.988-32.024 0-17.659 14.35-32.026 31.988-32.026 17.638 0 31.986 14.367 31.986 32.026 0 8.554-3.327 16.595-9.368 22.644z" fill="#000"/>
        <path d="M150.575 51.3c9.692 0 17.575-7.884 17.575-17.575 0-9.69-7.884-17.575-17.575-17.575-9.69 0-17.575 7.884-17.575 17.575 0 9.69 7.884 17.575 17.575 17.575zm0-26.556c4.952 0 8.98 4.03 8.98 8.981 0 4.952-4.028 8.98-8.98 8.98-4.952 0-8.98-4.028-8.98-8.98 0-4.952 4.028-8.98 8.98-8.98zM69.35 69.35a4.76 4.76 0 0 0-4.75 4.75 4.759 4.759 0 0 0 4.75 4.75 4.759 4.759 0 0 0 4.75-4.75 4.76 4.76 0 0 0-4.75-4.75z" fill="#000"/>
    </g>
</svg>
