<svg width="215" height="182" xmlns="http://www.w3.org/2000/svg">
    <g fill-rule="nonzero" fill="none">
        <path d="M7.7 8.641c3.917-3.898 10.265-3.898 14.18 0l29.48 29.348a16.134 16.134 0 0 0 11.382 4.694h57.32v19.963H88.39v37.406H51.627V66.49L7.7 22.757a9.95 9.95 0 0 1 0-14.116z" fill="#80F883"/>
        <path d="M206.73 8.641a9.86 9.86 0 0 0-14.014 0l-29.138 29.348a15.854 15.854 0 0 1-11.251 4.694h-54.18v19.963h28.83v37.406h36.335V66.49l43.42-43.732c3.87-3.898 3.87-10.218-.001-14.116z" fill="#2DE5FC"/>
        <path fill="#9CA8EE" d="M51.455 93.382h36.209v83.853H51.455z"/>
        <path d="M69.56 5.717c-8.42 0-15.246 6.914-15.246 15.443v5.324c0 8.529 6.826 15.443 15.246 15.443 8.42 0 15.246-6.914 15.246-15.443V21.16c0-8.529-6.825-15.443-15.246-15.443z" fill="#FCC69D"/>
        <path fill="#9CA8EE" d="M127.686 93.382h36.209v83.853h-36.209z"/>
        <path d="M143.885 5.717c8.42 0 15.246 6.914 15.246 15.443v5.324c0 8.529-6.826 15.443-15.246 15.443-8.42 0-15.246-6.914-15.246-15.443V21.16c-.001-8.529 6.825-15.443 15.246-15.443z" fill="#FCC69D"/>
        <path d="M29.063 38.115a4.316 4.316 0 0 0-3.031 1.252 4.328 4.328 0 0 0-1.257 3.032c0 1.132.459 2.238 1.257 3.036a4.319 4.319 0 0 0 3.03 1.256 4.319 4.319 0 0 0 3.032-1.256 4.312 4.312 0 0 0 1.257-3.036 4.31 4.31 0 0 0-1.257-3.032 4.316 4.316 0 0 0-3.031-1.252zM164.372 126.733a4.314 4.314 0 0 0-3.031 1.252 4.32 4.32 0 0 0-1.257 3.032c0 1.132.459 2.238 1.257 3.031a4.304 4.304 0 0 0 3.03 1.26 4.305 4.305 0 0 0 3.032-1.26 4.312 4.312 0 0 0 1.257-3.031 4.318 4.318 0 0 0-1.257-3.032 4.313 4.313 0 0 0-3.031-1.252z" fill="#000"/>
        <path d="M210.234 4.137A14.204 14.204 0 0 0 200.167 0c-3.804 0-7.38 1.47-10.068 4.137l-26.052 25.84c.316-1.388.488-2.83.488-4.311v-5.312c0-10.786-8.847-19.562-19.722-19.562-10.875 0-19.722 8.776-19.722 19.562v5.312a19.34 19.34 0 0 0 3.606 11.255H85.701a19.34 19.34 0 0 0 3.606-11.255v-5.312C89.307 9.568 80.46.792 69.585.792c-10.875 0-19.722 8.776-19.722 19.562v5.312c0 1.481.172 2.923.489 4.311L24.3 4.137c-5.552-5.506-14.584-5.506-20.137 0-5.55 5.506-5.55 14.466 0 19.973l10.642 10.555a4.214 4.214 0 0 0 5.923 0 4.13 4.13 0 0 0 0-5.875L10.086 18.235a5.79 5.79 0 0 1 0-8.224c2.286-2.267 6.005-2.267 8.291 0L47.93 39.323c3.839 3.808 8.942 5.905 14.37 5.905h89.797c5.429 0 10.532-2.097 14.371-5.905l29.552-29.312c2.286-2.267 6.005-2.267 8.291 0a5.789 5.789 0 0 1 0 8.224l-44.033 43.678a4.138 4.138 0 0 0-1.227 2.937v25.2h-28.476V61.013c0-2.293-1.875-4.154-4.188-4.154H88.01c-2.312 0-4.188 1.86-4.188 4.154v29.039H55.347V64.849a4.138 4.138 0 0 0-1.227-2.936L39.851 47.76a4.214 4.214 0 0 0-5.922 0 4.13 4.13 0 0 0 0 5.875L46.97 66.57v111.275c0 2.294 1.876 4.154 4.188 4.154h36.852c2.313 0 4.188-1.86 4.188-4.154V65.166h30v112.679c0 2.293 1.876 4.155 4.188 4.155h36.852c2.312 0 4.188-1.861 4.188-4.155v-31.013c0-2.294-1.875-4.154-4.188-4.154-2.313 0-4.188 1.86-4.188 4.154v26.859h-10.05v-54.426c0-2.294-1.876-4.154-4.188-4.154-2.313 0-4.188 1.86-4.188 4.154v54.426h-10.05V98.358h28.476v16.35c0 2.294 1.875 4.154 4.188 4.154 2.312 0 4.187-1.86 4.187-4.154V66.571l42.808-42.462c5.552-5.506 5.552-14.466 0-19.972zM58.24 20.354c0-6.205 5.09-11.255 11.347-11.255s11.347 5.05 11.347 11.255v5.312c0 6.205-5.09 11.255-11.347 11.255s-11.347-5.05-11.347-11.255v-5.312zm75.227 5.312v-5.312c0-6.205 5.09-11.255 11.347-11.255s11.347 5.05 11.347 11.255v5.312c0 6.205-5.09 11.255-11.347 11.255s-11.347-5.05-11.347-11.255zM73.773 173.69v-54.426c0-2.293-1.875-4.154-4.188-4.154-2.312 0-4.188 1.86-4.188 4.154v54.426h-10.05V98.358h28.476v75.333h-10.05z" fill="#000"/>
    </g>
</svg>
