<svg width="182" height="182" xmlns="http://www.w3.org/2000/svg">
    <g fill-rule="nonzero" fill="none">
        <path d="M164.011 43.832H17.99c-7.83 0-14.177 6.333-14.177 14.142v106.071c0 7.81 6.347 14.143 14.177 14.143H164.01c7.83 0 14.177-6.332 14.177-14.143V57.975c0-7.81-6.347-14.143-14.177-14.143z" fill="#3A5361"/>
        <path fill="#FFF" d="M40.02 64.796h117.205v92.43H40.021z"/>
        <path d="M167.443 6.933c4.163 4.16 4.163 10.91 0 15.07l-7.534 7.536-15.071-15.071 7.537-7.535c4.16-4.162 10.909-4.162 15.068 0z" fill="#2DE5FC"/>
        <path d="m160.084 29.393-59.228 59.225L85.76 73.52c29.042-29.045 27.976-27.979 59.225-59.228l15.1 15.1z" fill="#2DE5FC"/>
        <path d="m101.958 87.49-2.65 2.654a14.206 14.206 0 0 1-5.557 3.432l-19.426 6.476L80.8 80.626a14.206 14.206 0 0 1 3.432-5.556l2.654-2.651 15.071 15.071z" fill="#2DE5FC"/>
        <path d="M107.199 145.79a3.336 3.336 0 0 0 3.335-3.335 3.336 3.336 0 0 0-3.335-3.335 3.336 3.336 0 0 0-3.335 3.335 3.336 3.336 0 0 0 3.335 3.336zM20.963 102.911a7.62 7.62 0 0 0-7.623 7.623 7.62 7.62 0 0 0 7.623 7.623 7.622 7.622 0 0 0 7.623-7.623 7.622 7.622 0 0 0-7.623-7.623z" fill="#000"/>
        <path d="M164.226 39.815h-9.753c5.422-5.422-9.355 9.356 15.54-15.539 5.555-5.553 5.562-14.55.002-20.106-5.553-5.557-14.55-5.563-20.106-.001-4.219 4.217-31.622 31.618-35.65 35.646H17.774C7.974 39.815 0 47.788 0 57.587v106.64C0 174.027 7.973 182 17.774 182h146.452c9.8 0 17.774-7.973 17.774-17.773V57.587c0-9.8-7.973-17.772-17.774-17.772zM83.005 82.716a10.698 10.698 0 0 1 2.573-4.167l.141-.143 10.056 10.056-.14.14a10.72 10.72 0 0 1-4.171 2.574L78.772 95.41l4.233-12.693zm-2.453-9.196a17.838 17.838 0 0 0-4.292 6.948l-6.194 18.579-4.595 4.285a3.553 3.553 0 1 0 4.848 5.199l4.692-4.374 18.7-6.235a17.848 17.848 0 0 0 6.953-4.295l25.375-25.376h27.524v85.312H42.657V68.25H85.82l-5.269 5.269zm20.249 9.912L90.747 73.38l54.132-54.13 10.052 10.054-54.13 54.13zm54.134-74.237c2.741-2.742 7.24-2.813 10.052.002a7.099 7.099 0 0 1-.001 10.051l-5.027 5.027-10.052-10.052 5.028-5.028zm19.956 155.032c0 5.88-4.784 10.664-10.665 10.664H17.774c-5.88 0-10.665-4.784-10.665-10.664V57.587c0-5.879 4.784-10.662 10.665-10.662h89.375L92.93 61.142H39.1a3.555 3.555 0 0 0-3.553 3.555v92.42a3.554 3.554 0 0 0 3.554 3.555h118.016a3.554 3.554 0 0 0 3.555-3.555v-92.42a3.555 3.555 0 0 0-3.555-3.555h-23.971l14.219-14.217h16.861c5.88 0 10.665 4.783 10.665 10.662v106.64z" fill="#000"/>
        <path d="M121.73 145.79h21.44c1.974 0 3.573-1.578 3.573-3.525V114.06c0-1.948-1.6-3.526-3.573-3.526-1.972 0-3.573 1.578-3.573 3.526v24.679H121.73c-1.972 0-3.573 1.58-3.573 3.526 0 1.947 1.601 3.526 3.573 3.526zM20.487 96.24c1.84 0 3.335-1.563 3.335-3.493V78.77c0-1.93-1.494-3.494-3.335-3.494-1.842 0-3.335 1.565-3.335 3.494v13.976c0 1.93 1.493 3.494 3.335 3.494zM20.487 125.78c-1.842 0-3.335 1.564-3.335 3.494v13.975c0 1.93 1.493 3.494 3.335 3.494 1.84 0 3.335-1.564 3.335-3.494v-13.975c0-1.93-1.493-3.494-3.335-3.494z" fill="#000"/>
    </g>
</svg>
