<?xml version="1.0" encoding="UTF-8"?>
<svg fill="#FFFFFF" width="100pt" height="100pt" version="1.1" viewBox="0 0 100 100" xmlns="http://www.w3.org/2000/svg">
 <path d="m57.379 35.133c-4.125 4.9062-7.4023 9.1875-10.055 12.895l10.852 9.5234c3.2031-3.3281 6.9297-7.3945 11.223-12.426 16.105-18.891 20.391-34.695 20.391-34.695 0.26563-0.96875-0.44141-1.9336-1.5312-1.9727-0.30469 0.019531-0.52344 0.078125-0.71875 0.18359 0 0-14.402 7.7422-30.16 26.496zm-8.9961 31.84c1.832-1.5898 4.4219-3.9883 7.5977-7.1875l-10.469-9.1836c-2.7344 3.9805-4.6211 7.1289-5.8516 9.3672 3.207 1.9258 6.5469 4.1836 8.7266 7.0078zm-26.762 7.2734c-1.8555 3.1094-4.6562 5.9141-11.895 7.4961-1.3438 0.29687-1.6719 2.0625-0.52734 2.8242 4.9844 3.3555 11.98 6.1719 17.98 6.2305 6.0859 0.058594 14.258-3.1484 19.113-10.242 0.019531-0.03125 0.039062-0.058594 0.058593-0.089844 2.1289-3.6406 2.0625-6.9883 0.80469-9.5625-1.2578-2.5742-3.4375-4.4141-5.5312-6.125-1.6953-1.1836-3.5938-2.5156-6.0508-3.0352-0.66406-0.14063-1.3594-0.20703-2.0781-0.1875-2.1523 0.0625-4.4805 0.91406-6.5352 3.0117-2.8008 2.8516-3.4844 6.5703-5.3398 9.6797z"/>
</svg>
