<?xml version="1.0" encoding="UTF-8"?>
<svg fill="#FFFFFF" width="100pt" height="100pt" version="1.1" viewBox="0 0 100 100" xmlns="http://www.w3.org/2000/svg">
 <g>
  <path d="m50 62.5c6.875 0 12.5-5.625 12.5-12.5v-20.832c0-6.875-5.625-12.5-12.5-12.5s-12.5 5.625-12.5 12.5v20.832c0 6.875 5.625 12.5 12.5 12.5z"/>
  <path d="m66.668 43.75v6.25c0 9.168-7.5 16.668-16.668 16.668s-16.668-7.5-16.668-16.668v-6.25h-8.332v6.25c0 12.293 8.957 22.707 20.832 24.582v8.75h8.332v-8.75c11.875-2.082 20.832-12.293 20.832-24.582v-6.25z"/>
 </g>
</svg>
