<?xml version="1.0" encoding="UTF-8"?>
<svg fill="#FFFFFF" width="100pt" height="100pt" version="1.1" viewBox="0 0 100 100" xmlns="http://www.w3.org/2000/svg">
 <g>
  <path d="m44.727 76.336h-10.461-16.582c-1.3086 0-2.6484 0.097656-3.9453-0.019532 0.30469 0.039063 0.60547 0.078125 0.91016 0.125-0.21484-0.03125-0.42188-0.078125-0.625-0.15625 0.27344 0.11719 0.54687 0.23438 0.82031 0.34375-0.19531-0.085937-0.37109-0.1875-0.54688-0.3125 0.23438 0.17578 0.46094 0.35156 0.69531 0.53906-0.16406-0.13672-0.30469-0.27344-0.4375-0.4375 0.17578 0.23438 0.35156 0.46094 0.53906 0.69531-0.125-0.17578-0.22266-0.35156-0.3125-0.54688 0.11719 0.27344 0.23438 0.54688 0.34375 0.82031-0.078125-0.20312-0.125-0.41016-0.15625-0.625 0.039062 0.30469 0.078125 0.60547 0.125 0.91016-0.046875-0.63281-0.019531-1.2812-0.019531-1.9219v-4.6016-15.188-18.438-15.859c0-2.5391-0.019531-5.0703 0-7.6094 0-0.11719 0-0.23438 0.019531-0.35156-0.039062 0.30469-0.078125 0.60547-0.125 0.91016 0.03125-0.21484 0.078125-0.42188 0.15625-0.625-0.11719 0.27344-0.23438 0.54688-0.34375 0.82031 0.085938-0.19531 0.1875-0.37109 0.3125-0.54688-0.17578 0.23438-0.35156 0.46094-0.53906 0.69531 0.13672-0.16406 0.27344-0.30469 0.4375-0.4375-0.23438 0.17578-0.46094 0.35156-0.69531 0.53906 0.17578-0.125 0.35156-0.22266 0.54688-0.3125-0.27344 0.11719-0.54688 0.23438-0.82031 0.34375 0.20312-0.078125 0.41016-0.125 0.625-0.15625-0.30469 0.039062-0.60547 0.078125-0.91016 0.125 0.65625-0.058594 1.3281-0.019532 1.9922-0.019532h4.8633 7.1953 8.7891 9.6406 9.7734 9.0625 7.6562 5.4883c0.85938 0 1.7188-0.007812 2.5703 0 0.11719 0 0.23438 0 0.35938 0.019532-0.30469-0.039063-0.60547-0.078125-0.91016-0.125 0.21484 0.03125 0.42188 0.078125 0.625 0.15625-0.27344-0.11719-0.54688-0.23438-0.82031-0.34375 0.19531 0.085937 0.37109 0.1875 0.54687 0.3125-0.23437-0.17578-0.46094-0.35156-0.69531-0.53906 0.16406 0.13672 0.30469 0.27344 0.4375 0.4375-0.17578-0.23438-0.35156-0.46094-0.53906-0.69531 0.125 0.17578 0.22266 0.35156 0.3125 0.54688-0.11719-0.27344-0.23438-0.54688-0.34375-0.82031 0.078124 0.20312 0.125 0.41016 0.15625 0.625-0.039063-0.30469-0.078126-0.60547-0.125-0.91016 0.097656 1.1406 0.019531 2.3125 0.019531 3.457v7.9023 9.6562 8.3281c0 1.3594-0.03125 2.7031 0 4.0625v0.058594c0 1.7891 1.5742 3.4961 3.418 3.418 1.8555-0.078126 3.418-1.5039 3.418-3.418v-6.9844-14.102-10.938-1.0234c-0.007812-1.582-0.55469-3.0391-1.6484-4.1875-1.2578-1.3281-2.9883-1.7383-4.7266-1.7383h-6.543-11.648-14.289-14.344-11.855-6.8164c-1.25 0-2.4297 0.125-3.5859 0.74219-1.8438 0.99609-2.8906 3.0156-2.9297 5.0586v0.46875 6.5234 11.883 14.395 14.094 10.957c0 1.6602-0.019532 3.3281 0 4.9922 0.019531 1.5938 0.625 3.1953 1.8281 4.2773 1.1641 1.0469 2.5781 1.5625 4.1406 1.5625h3.1953 13.145 12.219 1.9727c1.7891 0 3.4961-1.5742 3.418-3.418-0.09375-1.8203-1.5117-3.3945-3.4336-3.3945z"/>
  <path d="m44.727 76.336h-10.461-16.582c-1.3086 0-2.6484 0.097656-3.9453-0.019532 0.30469 0.039063 0.60547 0.078125 0.91016 0.125-0.21484-0.03125-0.42188-0.078125-0.625-0.15625 0.27344 0.11719 0.54687 0.23438 0.82031 0.34375-0.19531-0.085937-0.37109-0.1875-0.54688-0.3125 0.23438 0.17578 0.46094 0.35156 0.69531 0.53906-0.16406-0.13672-0.30469-0.27344-0.4375-0.4375 0.17578 0.23438 0.35156 0.46094 0.53906 0.69531-0.125-0.17578-0.22266-0.35156-0.3125-0.54688 0.11719 0.27344 0.23438 0.54688 0.34375 0.82031-0.078125-0.20312-0.125-0.41016-0.15625-0.625 0.039062 0.30469 0.078125 0.60547 0.125 0.91016-0.125-1.5039-0.019531-3.0547-0.019531-4.5703v-7.0703-1.6484c-0.33203 0.80078-0.66406 1.6094-1.0078 2.4141 3.3789-3.3477 6.7578-6.6992 10.137-10.047 0.48047-0.46875 0.94531-0.9375 1.4258-1.4062h-4.8359c1.4922 1.4844 2.9766 2.9609 4.4727 4.4453 2.375 2.3516 4.7461 4.7188 7.1211 7.0703 0.54688 0.53906 1.0859 1.0859 1.6328 1.6211 1.3086 1.2969 3.5156 1.3086 4.8359 0 1.0859-1.0859 2.1797-2.168 3.2617-3.25 2.6172-2.5977 5.2266-5.2031 7.8438-7.8047 3.1641-3.1445 6.3281-6.2969 9.4922-9.4453 2.7344-2.7266 5.4688-5.4375 8.2031-8.1641 1.3281-1.3203 2.6875-2.6094 3.9844-3.9648 0.019531-0.019531 0.039063-0.039062 0.058594-0.058593h-4.8359c1.5742 1.5625 3.1445 3.1172 4.7266 4.6797 2.5 2.4688 4.9922 4.9414 7.4922 7.4141 0.57812 0.56641 1.1523 1.1406 1.7266 1.7109 1.2695 1.2578 3.5859 1.3672 4.8359 0 1.25-1.3594 1.3594-3.4883 0-4.8359-1.5742-1.5625-3.1445-3.1172-4.7266-4.6797-2.5-2.4688-4.9922-4.9414-7.4922-7.4141-0.57812-0.56641-1.1523-1.1406-1.7266-1.7109-1.3203-1.2969-3.5156-1.3086-4.8359 0-1.0859 1.0859-2.1797 2.168-3.2617 3.25-2.6172 2.5977-5.2266 5.2031-7.8438 7.8047-3.1641 3.1445-6.3281 6.2969-9.4922 9.4453-2.7344 2.7266-5.4688 5.4375-8.2031 8.1641-1.3281 1.3203-2.6875 2.6094-3.9844 3.9648-0.019531 0.019531-0.039063 0.039062-0.058594 0.058593h4.8359c-1.4922-1.4844-2.9766-2.9609-4.4727-4.4453-2.375-2.3516-4.7461-4.7188-7.1211-7.0703-0.54688-0.53906-1.0859-1.0859-1.6328-1.6211-1.3203-1.3086-3.5156-1.3086-4.8359 0-3.25 3.2227-6.4922 6.4375-9.7461 9.6562-0.55469 0.55469-1.1328 1.1016-1.6797 1.6719-0.69531 0.70312-1.1133 1.5547-1.1328 2.5703-0.007813 0.22266 0 0.44922 0 0.67188v7.832 3.5938 0.82812c0.03125 1.4922 0.53906 2.7734 1.4844 3.9062 1.1328 1.3477 2.8594 1.9219 4.5781 1.9219h1.7383 15.812 12.664 0.21484c1.7891 0 3.4961-1.5742 3.418-3.418-0.078125-1.832-1.4961-3.4062-3.418-3.4062z"/>
  <path d="m34.727 30.578c0 0.27344-0.019531 0.54688-0.058593 0.8125 0.039062-0.30469 0.078125-0.60547 0.125-0.91016-0.078125 0.52734-0.21484 1.0352-0.41016 1.5234 0.11719-0.27344 0.23438-0.54688 0.34375-0.82031-0.20312 0.48047-0.46094 0.91797-0.77344 1.3359 0.17578-0.23438 0.35156-0.46094 0.53906-0.69531-0.34375 0.4375-0.73438 0.82812-1.1719 1.1719 0.23438-0.17578 0.46094-0.35156 0.69531-0.53906-0.42188 0.3125-0.85938 0.56641-1.3359 0.77344 0.27344-0.11719 0.54687-0.23438 0.82031-0.34375-0.48828 0.19531-0.99609 0.33203-1.5234 0.41016 0.30469-0.039063 0.60547-0.078125 0.91016-0.125-0.54688 0.070313-1.0859 0.070313-1.6328 0 0.30469 0.039063 0.60547 0.078125 0.91016 0.125-0.52734-0.078125-1.0352-0.21484-1.5234-0.41016 0.27344 0.11719 0.54688 0.23438 0.82031 0.34375-0.48047-0.20312-0.91797-0.46094-1.3359-0.77344 0.23438 0.17578 0.46094 0.35156 0.69531 0.53906-0.4375-0.34375-0.82812-0.73438-1.1719-1.1719 0.17578 0.23438 0.35156 0.46094 0.53906 0.69531-0.3125-0.42188-0.56641-0.85938-0.77344-1.3359 0.11719 0.27344 0.23438 0.54688 0.34375 0.82031-0.19531-0.48828-0.33203-0.99609-0.41016-1.5234 0.039063 0.30469 0.078125 0.60547 0.125 0.91016-0.070312-0.54688-0.070312-1.0859 0-1.6328-0.039062 0.30469-0.078125 0.60547-0.125 0.91016 0.078125-0.52734 0.21484-1.0352 0.41016-1.5234-0.11719 0.27344-0.23437 0.54688-0.34375 0.82031 0.20313-0.48047 0.46094-0.91797 0.77344-1.3359-0.17578 0.23438-0.35156 0.46094-0.53906 0.69531 0.34375-0.4375 0.73437-0.82812 1.1719-1.1719-0.23437 0.17578-0.46094 0.35156-0.69531 0.53906 0.42188-0.3125 0.85938-0.56641 1.3359-0.77344-0.27344 0.11719-0.54688 0.23438-0.82031 0.34375 0.48828-0.19531 0.99609-0.33203 1.5234-0.41016-0.30469 0.039063-0.60547 0.078126-0.91016 0.125 0.54688-0.070312 1.0859-0.070312 1.6328 0-0.30469-0.039062-0.60547-0.078124-0.91016-0.125 0.52734 0.078126 1.0352 0.21484 1.5234 0.41016-0.27344-0.11719-0.54688-0.23438-0.82031-0.34375 0.48047 0.20312 0.91797 0.46094 1.3359 0.77344-0.23438-0.17578-0.46094-0.35156-0.69531-0.53906 0.4375 0.34375 0.82813 0.73438 1.1719 1.1719-0.17578-0.23438-0.35156-0.46094-0.53906-0.69531 0.3125 0.42188 0.56641 0.85938 0.77344 1.3359-0.11719-0.27344-0.23437-0.54688-0.34375-0.82031 0.19531 0.48828 0.33203 0.99609 0.41016 1.5234-0.039063-0.30469-0.078125-0.60547-0.125-0.91016 0.039062 0.28125 0.050781 0.54688 0.058593 0.82031 0.019532 1.7891 1.5625 3.5078 3.418 3.418 1.8359-0.078125 3.4375-1.5039 3.418-3.418-0.019531-1.8555-0.54688-3.7812-1.6211-5.293-1.25-1.7461-2.8516-2.9688-4.875-3.7109-3.4688-1.2695-7.8047-0.078125-10.148 2.7656-1.3867 1.6797-2.1406 3.5352-2.3359 5.6953-0.16406 1.8359 0.35938 3.8359 1.3203 5.4219 0.92969 1.5312 2.3359 2.9102 3.9766 3.6523 1.1406 0.51562 2.1289 0.78125 3.3672 0.92969 0.95703 0.11719 1.9219 0 2.8711-0.17578 1.8828-0.35938 3.8281-1.5039 5.0469-2.9766 1.5039-1.8164 2.375-3.9141 2.3906-6.2891 0.019531-1.7891-1.582-3.4961-3.418-3.418-1.8672 0.066406-3.3906 1.4844-3.4102 3.3984z"/>
  <path d="m77.891 77.91c-0.4375 0.4375-0.89844 0.83984-1.3867 1.2188 0.23438-0.17578 0.46094-0.35156 0.69531-0.53906-0.95703 0.72266-1.9844 1.3281-3.0859 1.8047 0.27344-0.11719 0.54688-0.23438 0.82031-0.34375-1.1641 0.48828-2.3828 0.82031-3.6328 0.99609 0.30469-0.039063 0.60547-0.078125 0.91016-0.125-1.2891 0.16406-2.5781 0.16406-3.8672 0 0.30469 0.039063 0.60547 0.078125 0.91016 0.125-1.25-0.17578-2.4609-0.50781-3.6328-0.99609 0.27344 0.11719 0.54688 0.23438 0.82031 0.34375-1.1016-0.48047-2.1406-1.0859-3.0859-1.8047 0.23438 0.17578 0.46094 0.35156 0.69531 0.53906-0.97656-0.76172-1.8438-1.6328-2.6094-2.5977 0.17578 0.23438 0.35156 0.46094 0.53906 0.69531-0.74219-0.96875-1.3477-2.0117-1.8281-3.1328 0.11719 0.27344 0.23438 0.54688 0.34375 0.82031-0.48828-1.1797-0.82031-2.4141-0.99609-3.6836 0.039062 0.30469 0.078125 0.60547 0.125 0.91016-0.15625-1.2578-0.15625-2.5312 0.007812-3.7891-0.039062 0.30469-0.078124 0.60547-0.125 0.91016 0.17578-1.2188 0.49609-2.4141 0.96875-3.543-0.11719 0.27344-0.23437 0.54688-0.34375 0.82031 0.48047-1.125 1.0859-2.168 1.8164-3.1328-0.17578 0.23438-0.35156 0.46094-0.53906 0.69531 0.76172-0.98437 1.6406-1.8672 2.625-2.625-0.23438 0.17578-0.46094 0.35156-0.69531 0.53906 0.95703-0.72266 1.9844-1.3281 3.0859-1.8047-0.27344 0.11719-0.54688 0.23437-0.82031 0.34375 1.1641-0.48828 2.3828-0.82031 3.6328-0.99609-0.30469 0.039062-0.60547 0.078125-0.91016 0.125 1.2891-0.16406 2.5781-0.16406 3.8672 0-0.30469-0.039063-0.60547-0.078125-0.91016-0.125 1.25 0.17578 2.4609 0.50781 3.6328 0.99609-0.27344-0.11719-0.54688-0.23438-0.82031-0.34375 1.1016 0.48047 2.1406 1.0859 3.0859 1.8047-0.23438-0.17578-0.46094-0.35156-0.69531-0.53906 0.97656 0.76172 1.8438 1.6328 2.5977 2.5977-0.17578-0.23438-0.35156-0.46094-0.53906-0.69531 0.73438 0.95703 1.3359 2 1.8164 3.1172-0.11719-0.27344-0.23438-0.54688-0.34375-0.82031 0.48828 1.1719 0.82031 2.3906 0.99609 3.6523-0.039063-0.30469-0.078125-0.60547-0.125-0.91016 0.16406 1.25 0.16406 2.5078 0 3.7578 0.039063-0.30469 0.078125-0.60547 0.125-0.91016-0.17578 1.2578-0.50781 2.4805-0.99609 3.6641 0.11719-0.27344 0.23438-0.54688 0.34375-0.82031-0.48047 1.1133-1.0859 2.1484-1.8164 3.1172 0.17578-0.23437 0.35156-0.46094 0.53906-0.69531-0.34375 0.46875-0.75781 0.9375-1.1953 1.3789-1.2578 1.2695-1.3672 3.5859 0 4.8359 1.3594 1.25 3.4883 1.3594 4.8359 0 2.4609-2.4805 4.2656-5.75 4.8438-9.2109 0.3125-1.8945 0.38281-3.6914 0.125-5.5938-0.25391-1.875-0.78125-3.5859-1.5742-5.3047-2.9492-6.4258-10.215-10.586-17.254-9.8945-1.7461 0.17578-3.4453 0.50781-5.0703 1.1797-1.8828 0.78906-3.5234 1.7578-5.0859 3.0859-2.6953 2.2734-4.6797 5.5391-5.5156 8.9531-0.82812 3.3594-0.72266 7.0703 0.51563 10.312 1.3984 3.6641 3.7969 6.7188 7.0898 8.8672 5.8203 3.7891 14.004 3.6719 19.617-0.48047 0.8125-0.59375 1.5938-1.2188 2.3047-1.9219 1.2695-1.2578 1.3594-3.5938 0-4.8359-1.3633-1.2422-3.4727-1.332-4.832 0.007812z"/>
  <path d="m77.891 82.742c2.3438 2.3438 4.6875 4.6875 7.0391 7.0391 0.33203 0.33203 0.66406 0.66406 0.99609 0.99609 1.2695 1.2695 3.5859 1.3594 4.8359 0 1.25-1.3672 1.3477-3.4883 0-4.8359-2.3438-2.3438-4.6875-4.6875-7.0391-7.0391-0.33203-0.33203-0.66406-0.66406-0.99609-0.99609-1.2695-1.2695-3.5859-1.3594-4.8359 0-1.25 1.3711-1.3477 3.4922 0 4.8359z"/>
 </g>
</svg>
